/* XPM */
static char *result[] = {
/* columns rows colors chars-per-pixel */
"32 32 5 1 ",
"  c #87AA1C",
". c #8FB31E",
"X c #95BB1F",
"o c #9FC42C",
"O c #A4C92D",
/* pixels */
"oOXX.XoXO..XOXXXXXX.X XXOX.XO.XX",
"Xo...XX.XX XXoOXXOXXX .XXOXOoXX.",
"X.XX XXXX.X.XXoXOXX .XX.XoXoX.XX",
"..X.XXOX..X.X.X.X..XX.XX..XXXX.X",
"XXOXX..XX.XX X.XXXXoXXXXXX.X.XX.",
".XXoXOXXXXX.XX.X XX.OXOX..XXX..X",
".X.XXX X.XOXX.XX.XX.XXX.XX....XX",
"X.X X. X.XoX.O.XX.XXX.X XOX.XXoX",
".XXXX.XXXXX.XXXoOX.X ..X.oOXOoXX",
".XOOXXXOXXXX X.XoXOX .X XXoXOXXX",
"X.XoOXOX .X. .XXXo..XXX.XX.XXX. ",
".X.Xo.O. X.XX..XXXXX.XXX..XX XX ",
"XX....XX.. X.XX .X.XoXXOXX..X.X.",
"OXXX.XXXX..XXX. XXXXXO..XXXX.X.o",
"oOXOXX.X.XXXOXXX.X.XXXXX..X. .XX",
"XoOXX.XXX.XXXOXXXX.X.X. .XX. XXX",
"X.XX.XXoXXO.XoXO..X. .XXXXXX..X.",
"X. XXXXXO.o.XX.XXXoXX.XXOX.X.XX.",
"OX .XX.XXXXX.X.X.XXoOXXOoXXXXOXX",
"OXXXoXXX.X..XXX. XXXoOXoXX..XXOX",
"XX.XXOXXX..XX XX X.X.oX.X XX.X.X",
" .XXXoXOXX .XXXX.XXXXXXX.XXX.XXX",
"XX.XXX.XX. XXOXXXXX.XX.XXX XXXOX",
".X X.XX.XXXX.oOXXOXX. .XoXXXOoXX",
".X X .XXXX.X.Xo.O.X.X XXXOXOoXX.",
"XX.XXX.XOXXXX..XXX.X.X..XoXoXXXX",
"XOXX.XXXoOXXOXXX.XX .XX XX.X.X.X",
"XoXOX.XXXo.O.X.XXXXXXXXX.XX.XXX.",
"XX..XX .XXXXXXXXOX.XXOXXX.XX X .",
"X.XX.XXX.XX. .XXXoOXOoXX. XXX. X",
"XXX.XOXXXXX.XXX..XoXo..XXX.X.XXX",
"OXOX.oOXXOXXXX.X XXX..XX.XXXXoXX"
};
