/* XPM */
static char *result[] = {
/* columns rows colors chars-per-pixel */
"32 32 38 1 ",
"  c #39433C",
". c #5D722B",
"X c #5E742C",
"o c #4E643C",
"O c #60752C",
"+ c #61792C",
"@ c #648A04",
"# c #78A205",
"$ c #6E8926",
"% c #6F8926",
"& c #718C26",
"* c #728E26",
"= c #738F26",
"- c #769227",
"; c #769327",
": c #7A952F",
"> c #6D8535",
", c #6E8534",
"< c #82A41B",
"1 c #87AA1C",
"2 c #8AAE1D",
"3 c #8CAF1D",
"4 c #8CB01D",
"5 c #8EB21E",
"6 c #8FB31E",
"7 c #8FB41E",
"8 c #90B41E",
"9 c #91B71E",
"0 c #92B71E",
"q c #93B91F",
"w c #94BA1F",
"e c #95BB1F",
"r c #94B729",
"t c #9CBF2B",
"y c #9FC42C",
"u c #A4C92D",
"i c #A4CB2E",
"p c #B1D83B",
/* pixels */
"eee6e66e6eeue66e6e6e6e66ee6ee66e",
"e6ee6eeuee66eeoo 1e6eeeeyeeeeee6",
"ee66e6eeyeu@e#@@@oe e1ee6ueue66e",
"666ee6e6e@##ee#e##o@o  e6eee6ee6",
"6eeyee6e@#epppi#pie#@@o ee6e1eue",
"euyee6@#eppppppeippie#o@o 66e6yu",
"eueee@#eeipppppippii#e#e@o e1eey",
"eee61iippeippiieeiie#eeee#@e6ee6",
"e1ee@epppieippppie#eeiiie#o e66e",
"6e6@epppieippppppie#eippie@o ee6",
"e6e#eipieeppppppiie#iipipi@o eee",
"61@##eie#ipppipiieieipipii#@o 6e",
"61@eippieeipipipeie#eppiie#@ 6ee",
"eo#eppppi#eiiiie#ee##eiie#@o@ ee",
"e6@ipipiieieie#e##eiiie##@#@o  6",
"eo#eiiieeipppie#eippieee##@@  ee",
"6o@#eeeeippipipeeppppiiee#@o@o 6",
"e6o@#ee#ipipiiieiipiie###e#@@o e",
"eo@o@#@#eiiiiei#iieipiie###@o oe",
"eo@@@@##eeeieieeieipipiie#@@oo 1",
"eo@#@#e##e#ei#e#eiippiiee@@o@o e",
"u o##@#e##e#ee###eiiiiee#oo@o  e",
"y o@@#@#@##eiiiee#eee##@@@@@o ye",
"e6 o@@o@#@#eeiee#e##@###@o@o o 6",
"6ee o@@o@@##e#e#e#@##@@@oo@oo ee",
"e1 o o@@oo@##@###@o@@@@oo@oo  6e",
"ee6  ooo@oo@@#@@@@@oooooooo  31e",
"e6ee  ooo ooo@@@ooo@@o oo   ;we6",
"eeyee, o o ooooooo oooo  . -q6ee",
"eu6eey> + o  ooo  oo   X =<weue6",
"uyee6ey63& O        X :25916eeue",
"ye6eee6ee1085=%*$**r4t7016ee6eye"
};
