/* XPM */
static char *result[] = {
/* columns rows colors chars-per-pixel */
"32 32 34 1 ",
"  c gray13",
". c #323232",
"X c #453431",
"o c #5E7714",
"O c #647D15",
"+ c #57423B",
"@ c #414143",
"# c #484849",
"$ c gray32",
"% c #6F5C53",
"& c #606062",
"* c #6F6F71",
"= c #867469",
"- c #688316",
"; c #6F891F",
": c #728C1F",
"> c #739118",
", c #7A981A",
"< c #7F9F1A",
"1 c #799421",
"2 c #87AA1C",
"3 c #89AC1D",
"4 c #8AAD1D",
"5 c #8FB31E",
"6 c #95BB1F",
"7 c #93B529",
"8 c #9FC42C",
"9 c #A4C92D",
"0 c #808082",
"q c #9E8D80",
"w c #B6A598",
"e c #9E9EA0",
"r c #B6B6BA",
"t c #CFBFB0",
/* pixels */
"65665669665566566265666686666665",
"66556566869666665665626659696556",
"55566565666265696656656656665665",
"56$$$$+%%%%%%%%%%%%%%%%%%%$$$$96",
"69$0**%qqqqqqqqqqqqqqqqqq%0**$89",
"69$e00+=%===========%==%%+e00$68",
"66$eee%ttttttttttttttttww%eee$65",
"62$eee%tttttttttttwtwtwww%eee$56",
"56$e00+%=%========%==%%%++e00$<3",
"65$0**%ttttttttttwtwtwwwq%0**$-<",
"52$0ee%wwwwwwwwwwqwwqwwqq%0ee$O<",
"52$e00++%+%%%%%%%%%+%%%+++e00$-<",
"65$0**%wwwwwwwwwwwwwwwwwq%0**$-<",
"65$***%wwwwwwwwwwqwqwqqqq%***$-,",
"66$*&&++%%%%%%%%%%%%%++%++*&&$-<",
"56@@@@$%=qqqqqqqqqqqqqq==0@@@@-,",
"65@*&&&0%%%==========%%%0&&&&@o<",
"65@*r$&&$00e0eeeeeeeee0$&&r$&@-<",
"66@*$@&&@&&&&$$$$$$&&&&@&&$@&@->",
"69@&&&&&@&&&.eee*e*.&&&@&&&&$@-<",
"98...........$$$$@@...........:<",
"86.@@@@@.@@@.$$ .@@.@@@.$@@@@.;<",
"65.&0@&&.&&&.$@ .@@.@$&.&&0@@.-,",
"56.&@.&@......@@@@......@$@.@.-<",
"62.&&&@XX++X+......XX++XX@$$@.O<",
"66.@@.+%%%%%%.###@.+%%%%%%@...o<",
"65.&$@XX+X+++.$$$#.X+++X+X$$@.-,",
"66.@@.&%%%%%%.$$$#.+%%%%%&@...-<",
"69.&#@@&$&&&&.$$$#.&&&&$&@@@@.-,",
"98.&0@@#.#############@.@@0@@.14",
"86............................76",
"66656556566965565656565566566556"
};
