/* XPM */
static char *result[] = {
/* columns rows colors chars-per-pixel */
"32 32 30 1 ",
"  c #2E1E22",
". c #323234",
"X c #534721",
"o c #505133",
"O c #555836",
"+ c #6E5E2C",
"@ c #545456",
"# c #635B4D",
"$ c #6E6B4B",
"% c #736A64",
"& c #7D7375",
"* c #767678",
"= c #87AA1C",
"- c #8FB31E",
"; c #95BB1F",
": c #9FC42C",
"> c #A4C92D",
", c #86826A",
"< c #959963",
"1 c #979799",
"2 c #A09B90",
"3 c #A9AA86",
"4 c #BABE95",
"5 c #B1ABAD",
"6 c #B7B7BB",
"7 c #CDCDBB",
"8 c #D2D2D6",
"9 c #E4E6D1",
"0 c #E5E3E3",
"q c white",
/* pixels */
":>;;-;:;>--;>;;;;;;-;=;;>;-;>-;;",
";:---;;-;;=;;:>;;>;;;=-;;>;>:;;-",
";-;;=;;;;-;-;;:;>;;=-;;-;:;:;-;;",
"--;-;;>;--;-;OOOOOOO;-;;--;;;;-;",
";;>;;--;;-;OO<<444<<OO;;;;-;-;;-",
"-;;:;>;;;;O<449999944<O;--;;;--;",
"-;-;;;=;-O<49999999994<O;;----;;",
";-;=;-=;-O4999qqqqq9994O;>;-;;:;",
"-;;;;-;;O<499qqqqqqq994<O:>;>:;;",
"-;1>;;;>O4449qqqqqqq9444O;:;>;;;",
";-11>;>;O49999qqqqq99994O;-;;;-=",
"-;1q1->-O49qqq9qqq9qqq94O-;;=;;=",
";;1q6-;;O47550q999q05574O;--;-;-",
">;1qq1;;O3%  &0qqq0&  %3O;;;-;-:",
":>1qq1-;O$    5qqq5    $O-;-=-;;",
";:18q1;;O$    5q9q5    $O;;-=;;;",
";-18q6;:;o#  &0<4<0&  #o;;;;--;-",
";-=1qq1;>Oo,20qqqqq02,oO>;-;-;;-",
">;=1qq1;O<<O<O9<9<9O<O<<O;;;...;",
">;;18q1O<q94OOOOOOOOO49q<...@*.;",
";;-18q6Oq<<9qqq<<<qqq9...@1**@.;",
"=-;;1qq...O<<<4q9q4<<<.*16@X+@.;",
";;-;1qq@11.49qq444qq94.*+X+X+@.;",
"-;=.@*11@.;O<<4<<<4<<O.*+X+@*@.;",
"-;.*11@@.OO494OO<OO494.*161*@@.-",
";;-...q9O;O<q9<O4O<9q<.*11*X+@.;",
";>;;-;OO:>;O4q4<<<4q4O.*+X+X+@.;",
";:;>;-;;;:-O94OOOOO49O.*1X+X+@.-",
";;--;;=-;;;O49<O>O<94O;.@1+X@.=-",
";-;;-;;;-;;O9q4O;O4q9O;;.@1*.-=;",
";;;-;>;;;;;Oqq9O-O9qqO-;;...-;;;",
">;>;-:>;;>;;OOO;=;OOO-;;-;;;;:;;"
};
