/* XPM */
static char *result[] = {
/* columns rows colors chars-per-pixel */
"32 32 134 2 ",
"   c black",
".  c #050800",
"X  c #0F1601",
"o  c #121901",
"O  c #152000",
"+  c #192500",
"@  c #1A2402",
"#  c #1C2602",
"$  c #202F00",
"%  c #213000",
"&  c #2F3D04",
"*  c #2B3708",
"=  c #303E04",
"-  c #2F3D23",
";  c #2F4301",
":  c #334701",
">  c #314005",
",  c #374706",
"<  c #344A01",
"1  c #364D01",
"2  c #324008",
"3  c #3C4C0B",
"4  c #39480D",
"5  c #3B5401",
"6  c #3C5401",
"7  c #3D5501",
"8  c #39433C",
"9  c #40510C",
"0  c #43550D",
"q  c #486202",
"w  c #496602",
"e  c #4D6A02",
"r  c #506E02",
"t  c #537303",
"y  c #557603",
"u  c #59710E",
"i  c #4E6211",
"p  c #536813",
"a  c #536913",
"s  c #5D7610",
"d  c #5A7115",
"f  c #5B7215",
"g  c #5C7316",
"h  c #5F7810",
"j  c #5F7910",
"k  c #5D721B",
"l  c #607A10",
"z  c #657C1E",
"x  c #5D722B",
"c  c #5E742C",
"v  c #4B603A",
"b  c #4D623B",
"n  c #4D633B",
"m  c #4E643C",
"M  c #60752C",
"N  c #61792C",
"B  c #5C8003",
"V  c #648A04",
"C  c #678C04",
"Z  c #6A8F04",
"A  c #739B05",
"S  c #769F05",
"D  c #668112",
"F  c #6A8613",
"G  c #678119",
"H  c #718F15",
"J  c #729015",
"K  c #7A9917",
"L  c #77941F",
"P  c #7B9A18",
"I  c #7E9F19",
"U  c #77A005",
"Y  c #78A105",
"T  c #78A205",
"R  c #6E8721",
"E  c #6E8926",
"W  c #6F8926",
"Q  c #728C23",
"!  c #718C26",
"~  c #728E26",
"^  c #738F26",
"/  c #769227",
"(  c #769327",
")  c #789325",
"_  c #7F9E22",
"`  c #7D9927",
"'  c #7A952F",
"]  c #6D8535",
"[  c #6E8534",
"{  c #82A41B",
"}  c #87AA1B",
"|  c #87AA1C",
" . c #8AAE1D",
".. c #8CAF1D",
"X. c #8CB01D",
"o. c #8EB31D",
"O. c #8FB31D",
"+. c #8EB21E",
"@. c #8FB31E",
"#. c #8FB41E",
"$. c #90B41E",
"%. c #91B61E",
"&. c #91B71E",
"*. c #92B71E",
"=. c #93B91F",
"-. c #94BA1F",
";. c #95BB1F",
":. c #809D28",
">. c #86A624",
",. c #8EB026",
"<. c #90B327",
"1. c #92B528",
"2. c #94B729",
"3. c #90B02E",
"4. c #94B829",
"5. c #99BD2A",
"6. c #9ABF2B",
"7. c #9CBF2B",
"8. c #97B931",
"9. c #99BB32",
"0. c #9FC42C",
"q. c #9EC134",
"w. c #A2C82D",
"e. c #A2C92D",
"r. c #A4C92D",
"t. c #A4CB2E",
"y. c #A0C334",
"u. c #A6CA37",
"i. c #AACF38",
"p. c #ABD139",
"a. c #ACD139",
"s. c #AFD53A",
"d. c #AFD63A",
"f. c #B1D83B",
/* pixels */
";.;.;.@.;.@.@.;.@.;.;.r.;.@.@.;.@.;.@.;.@.;.@.@.;.;.@.;.;.@.@.;.",
";.@.;.;.@.;.;.r.;.;.@.@.;.;.m m 8 | ;.@.;.;.;.;.0.;.;.;.;.;.;.@.",
";.;.@.@.;.@.;.;.0.;.r.V ;.T V V V m ;.8 ;.| ;.;.@.r.;.r.;.@.@.;.",
"@.@.@.;.;.@.;.@.;.V T T ;.;.T ;.T T m V m 8 8 ;.@.;.;.;.@.;.;.@.",
"@.;.;.0.;.;.@.;.V T ;.f.8.R 9 O * 0 l Z V V m 8 ;.;.@.;.| ;.r.;.",
";.r.0.;.;.@.V T ;.f.a.z                 j U m V m 8 @.@.;.@.0.r.",
";.r.;.;.;.V T ;.;.e.k                     s T ;.V m 8 ;.| ;.;.0.",
";.;.;.@.| t.t.f.f.H       G 2.*.%.<.f       I ;.;.T V ;.@.;.;.@.",
";.| ;.;.V ;.f.f.s.2     ` f.f.f.t.;.Y u     i t.;.T m 8 ;.@.@.;.",
"@.;.@.V ;.f.f.f.,.    4 d.f.f.f.f.t.;.A o     u.t.;.V m 8 ;.;.@.",
";.@.;.T ;.t.f.t.D     ) f.f.f.f.t.t.;.T g     _ f.t.V m 8 ;.;.;.",
"@.| V T T ;.t.;.7     3.f.t.f.t.t.;.t.;.L     Q t.t.T V m 8 @.;.",
"@.| V ;.t.f.f.t.>     q.t.f.t.f.;.t.;.T K     a t.;.T V 8 @.;.;.",
";.m T ;.f.f.f.f..     5.t.t.t.;.T ;.;.T C     3 ;.T V m V 8 ;.;.",
";.@.V t.f.t.f.t.      o.t.;.T ;.T T ;.t.1.    $ T V T V m 8 8 @.",
";.m T ;.t.t.t.;.      p.f.t.;.T ;.t.f.f.4.    @ T T V V 8 8 ;.;.",
"@.m V T ;.;.;.;.      0.f.t.f.;.;.f.f.f.y.    # ;.T V m V m 8 @.",
";.@.m V T ;.;.T       i.t.t.t.;.t.t.f.t.1.    % T ;.T V V m 8 ;.",
";.m V m V T V T       6.t.;.t.T t.t.;.t.9.    , T T T V m 8 m ;.",
";.m V V V V T T =     2.;.t.;.;.t.;.t.f.>.    p ;.T V V m m 8 | ",
";.m V T V T ;.T 6     P t.T ;.T ;.t.t.f.:.    h ;.V V m V m 8 ;.",
"r.8 m T T V T ;.r     r ;.;.T T T ;.t.t.d     J T m m V m 8 8 ;.",
"0.8 m V V T V T y     & w.t.t.;.;.T ;.O.X     B V V V V m 8 0.;.",
";.@.8 m V V m V S +     F t.;.;.T ;.T q     : T V m V m 8 m 8 @.",
"@.;.;.8 m V V m V w       e } S %.Z 1       t V m m V m m 8 ;.;.",
";.| 8 m 8 m V V m b ;                     5 V m m V m m 8 8 @.;.",
";.;.@.8 8 m m m V m v <                 - n m m m m m 8 8 ..| ;.",
";.@.;.;.8 8 m m m 8 m m m V V V m m m V V m 8 m m 8 8 8 ( -.;.@.",
";.;.0.;.;.[ 8 m 8 m 8 m m m m m m m 8 m m m m 8 8 x 8 / =.@.;.;.",
";.r.@.;.;.0.] 8 N 8 m 8 8 m m m 8 8 m m 8 8 8 c 8 ^ { -.;.r.;.@.",
"r.0.;.;.@.;.0.@...! 8 M 8 8 8 8 8 8 8 8 c 8 '  .+.&.| @.;.;.r.;.",
"0.;.@.;.;.;.@.;.;.| *.$.+.^ W ~ E ~ ~ 2.X.7.#.*.| @.;.;.@.;.0.;."
};
