/* XPM */
static char *result[] = {
/* columns rows colors chars-per-pixel */
"32 32 60 1 ",
"  c black",
". c #0E1509",
"X c #152100",
"o c #2D3B21",
"O c #344901",
"+ c #39433C",
"@ c #435508",
"# c #4A5D10",
"$ c #5A720F",
"% c #506416",
"& c #536717",
"* c #5C721A",
"= c #647D18",
"- c #5D722B",
"; c #5E742C",
": c #4E643C",
"> c #60752C",
", c #61792C",
"< c #648A04",
"1 c #6D9304",
"2 c #78A205",
"3 c #6E8926",
"4 c #6F8926",
"5 c #718C26",
"6 c #728E26",
"7 c #738F26",
"8 c #769227",
"9 c #769327",
"0 c #7A952F",
"q c #6D8535",
"w c #6E8534",
"e c #82A41B",
"r c #87AA1B",
"t c #87AA1C",
"y c #8AAE1D",
"u c #8CAF1D",
"i c #8CB01D",
"p c #8EB21E",
"a c #8FB31E",
"s c #8FB41E",
"d c #90B41E",
"f c #91B71E",
"g c #92B71E",
"h c #93B91F",
"j c #94BA1F",
"k c #95BB1F",
"l c #89AA25",
"z c #94B729",
"x c #90B02E",
"c c #95B929",
"v c #9CBF2B",
"b c #9FC42C",
"n c #A3CA2E",
"m c #A4C92D",
"M c #A4CB2E",
"N c #A1C535",
"B c #A4C836",
"V c #ABD139",
"C c #AFD63A",
"Z c #B1D83B",
/* pixels */
"kkkakaakakkmkaakakakakaakkakkaak",
"kakkakkmkkaakk::+tkakkkkbkkkkkka",
"kkaakakkbkm<k2<<<:k+ktkkamkmkaak",
"aaakkakak<22kk2k22:<:++kakkkakka",
"akkbkkak<2kZZZl  ck2<<:+kkaktkmk",
"kmbkka<2kZZZZC*  NZMk2:<:+aakabm",
"kmkkk<2kknVBx&   NMM2k2k<:+ktkkb",
"kkkatMMZZ$       cMk2kkkk2<kakka",
"ktkk<kZZZ=       r2kkMMMk2:+kaak",
"aka<kZZZM$       ck2kMZZMk<:+kka",
"kak2kMZMkkZZZZ%  ck2MMZMZM<:+kkk",
"at<22kMk2MZZZM%  rMkMZMZMM2<:+ak",
"at<kMZZMkkMZMZ#  ck2kZZMMk2<+akk",
"k:2kZZZZM2kMMM#  rk22kMMk2<:<+kk",
"ka<MZMZMMkMkMkO  1kMMMk22<2<:++a",
"k:2kMMMkkMZZZM@  cZZMkkk22<<++kk",
"a:<2kkkkMZZMZM%  NZZZMMkk2<:<:+a",
"ka:<2kk2MZMZMM#  cZMMk222k2<<:+k",
"k:<:<2<2kMMMMk#  ckMZMMk222<:+:k",
"k:<<<<22kkkMkM@  rMZMZMMk2<<::+t",
"k:<2<2k22k2kM2@  cMZZMMkk<<:<:+k",
"m+:22<2k22k2kkO  rMMMMkk2::<:++k",
"b+:<<2<2<22kMM#  1kkk22<<<<<:+bk",
"ka+:<<:<2<2kkM@  r22<222<:<:+:+a",
"akk+:<<:<<22k2@  1<22<<<::<::+kk",
"kt+:+:<<:o           X<::<::++ak",
"kka++:::<o           .:::::++utk",
"kakk++:::+:::<<<:::<<:+::+++9jka",
"kkbkkw+:+:+:::::::+::::++-+8hakk",
"kmakkbq+,+:++:::++::+++;+7ejkmka",
"mbkkakbau5+>++++++++;+0ypftakkmk",
"bkakkkakktgdp746366zivsgtakkakbk"
};
