/* XPM */
static char *result[] = {
/* columns rows colors chars-per-pixel */
"32 32 117 2 ",
"   c black",
".  c #070D00",
"X  c #0E1700",
"o  c #121801",
"O  c #171F03",
"+  c #1A2203",
"@  c #1A2700",
"#  c #1A2402",
"$  c #1B2800",
"%  c #1C2A00",
"&  c #1E2803",
"*  c #2A3B01",
"=  c #2A3C01",
"-  c #2E3C04",
";  c #374C01",
":  c #34420B",
">  c #38460D",
",  c #3A4A0A",
"<  c #3E5601",
"1  c #3F500C",
"2  c #38482A",
"3  c #3D4F2E",
"4  c #39433C",
"5  c #43550D",
"6  c #495C0F",
"7  c #415210",
"8  c #495B13",
"9  c #4C5F10",
"0  c #476102",
"q  c #486502",
"w  c #52690D",
"e  c #546B0D",
"r  c #5D7E03",
"t  c #58700E",
"y  c #4E6211",
"u  c #516612",
"i  c #536717",
"p  c #5A7115",
"a  c #5E7810",
"s  c #5D721B",
"d  c #617B11",
"f  c #627A18",
"g  c #657F19",
"h  c #435633",
"j  c #5D722B",
"k  c #5E742C",
"l  c #4E643C",
"z  c #60752C",
"x  c #61792C",
"c  c #618403",
"v  c #648A04",
"b  c #678C04",
"n  c #709704",
"m  c #749D05",
"M  c #759E05",
"N  c #688413",
"B  c #6C8814",
"V  c #668019",
"C  c #6D881B",
"Z  c #7A9A18",
"A  c #7D9E18",
"S  c #78A105",
"D  c #78A205",
"F  c #7FA019",
"G  c #6E8926",
"H  c #6F8926",
"J  c #718C26",
"K  c #728E26",
"L  c #738F26",
"P  c #748E24",
"I  c #769227",
"U  c #769327",
"Y  c #7A952F",
"T  c #7F9C28",
"R  c #6D8535",
"E  c #6E8534",
"W  c #82A41B",
"Q  c #87AA1C",
"!  c #8AAD1C",
"~  c #8AAE1D",
"^  c #8CAF1C",
"/  c #8CAF1D",
"(  c #8CB01D",
")  c #8DB11D",
"_  c #8EB31D",
"`  c #8FB31D",
"'  c #8EB21E",
"]  c #8FB31E",
"[  c #8FB41D",
"{  c #8FB41E",
"}  c #90B41E",
"|  c #91B71E",
" . c #92B71E",
".. c #93B91F",
"X. c #94B91F",
"o. c #94BA1F",
"O. c #95BB1F",
"+. c #8BAC25",
"@. c #91B428",
"#. c #94B729",
"$. c #95B829",
"%. c #9CBF2B",
"&. c #9ABD32",
"*. c #9BBD32",
"=. c #9CC12B",
"-. c #9DC32C",
";. c #9FC42C",
":. c #A1C72D",
">. c #A2C82D",
",. c #A2C92D",
"<. c #A3CA2E",
"1. c #A4C92D",
"2. c #A4CB2E",
"3. c #A0C435",
"4. c #AED53A",
"5. c #AFD53A",
"6. c #B1D83B",
/* pixels */
"O.O.O.] O.] ] O.] O.O.1.O.] ] O.] O.] O.] O.] ] O.O.] O.O.] ] O.",
"O.] O.O.] O.O.1.O.O.] ] O.O.l l 4 Q O.] O.O.O.O.;.O.O.O.O.O.O.] ",
"O.O.] ] O.] O.O.;.O.1.v O.D v v v l O.4 O.Q O.O.] 1.O.1.O.] ] O.",
"] ] ] O.O.] O.] O.v D D O.O.D O.D D l v l 4 4 O.] O.O.O.] O.O.] ",
"] O.O.;.O.O.] O.v m Z P i : o @ 8 V F S v v l 4 O.O.] O.Q O.1.O.",
"O.1.;.O.O.] v D d +                   u ( D l v l 4 ] ] O.] ;.1.",
"O.1.O.O.O.v D O.-                       * ` D O.v l 4 O.Q O.O.;.",
"O.O.O.] Q 2.2.6.>   1 T &.-.,.( A y       a O.O.O.D v O.] O.O.] ",
"O.Q O.O.v O.6.6.s +.O.2.6.6.6.6.2.O.0     & :.2.O.D l 4 O.] ] O.",
"] O.] v O.6.6.6.2.O.2.6.6.6.6.6.6.2.(       3.6.2.O.v l 4 O.O.] ",
"O.] O.D O.2.6.2.O.O.6.6.6.6.6.6.2.2.O.%     *.2.6.2.v l 4 O.O.O.",
"] Q v D D O.2.O.D 2.6.6.6.2.6.2.2.O.2.#     $.6.2.2.D v l 4 ] O.",
"] Q v O.2.6.6.2.O.O.2.6.2.6.2.6.O.2.!     O 4.2.2.O.D v 4 ] O.O.",
"O.l D O.6.6.6.6.2.D O.2.2.2.2.O.D O.N     e 2.2.O.D v l v 4 O.O.",
"O.] v 2.6.2.6.2.2.O.2.O.2.O.D O.D n #     @.O.D D v D v l 4 4 ] ",
"O.l D O.2.2.2.O.O.2.6.6.6.2.O.D  .6     C O.O.O.D D v v 4 4 O.O.",
"] l v D O.O.O.O.2.6.6.2.6.2.6.X.w     i 5.2.2.O.O.D v l v l 4 ] ",
"O.] l v D O.O.D 2.6.2.6.2.2.<.t     7 =.2.O.D D D O.D v v l 4 O.",
"O.l v l v D v D O.2.2.2.2.X.f     , ^ 2.6.2.2.O.D D D v l 4 l O.",
"O.l v v v v D D O.O.O.2.| p     5 ) 2.6.2.6.2.2.O.D v v l l 4 Q ",
"O.l v D v D O.D D O.D _ 9     ; [ 2.2.6.6.2.2.O.O.v v l v l 4 O.",
"1.4 l D D v D O.D D ! =     < M D O.2.2.2.2.O.O.D l l v l 4 4 O.",
";.4 l v v D v D v b $     g >.O.O.D O.O.O.D D v v v v v l 4 ;.O.",
"O.] 4 l v v l v r .     B 2.O.O.D O.D D v D D D v l v l 4 l 4 ] ",
"] O.O.4 l v v 3     X c O.D O.D O.D v D D v v v l l v l l 4 O.O.",
"O.Q 4 l 4 l v q                               h l v l l 4 4 ] O.",
"O.O.] 4 4 l l 2                               h l l l 4 4 / Q O.",
"O.] O.O.4 4 l l l 4 l l l v v v l l l v v l 4 l l 4 4 4 U o.O.] ",
"O.O.;.O.O.E 4 l 4 l 4 l l l l l l l 4 l l l l 4 4 j 4 I ..] O.O.",
"O.1.] O.O.;.R 4 x 4 l 4 4 l l l 4 4 l l 4 4 4 k 4 L W o.O.1.O.] ",
"1.;.O.O.] O.;.] / J 4 z 4 4 4 4 4 4 4 4 k 4 Y ~ ' | Q ] O.O.1.O.",
";.O.] O.O.O.] O.O.Q  .} ' L H K G K K #.( %.{  .Q ] O.O.] O.;.O."
};
