/* XPM */
static char *result[] = {
/* columns rows colors chars-per-pixel */
"32 32 130 2 ",
"   c black",
".  c #020300",
"X  c #020500",
"o  c #050800",
"O  c #0B1001",
"+  c #0E1700",
"@  c #131E00",
"#  c #192101",
"$  c #1F2A17",
"%  c #212B05",
"&  c #242E06",
"*  c #213000",
"=  c #253103",
"-  c #2A3606",
";  c #2C3806",
":  c #303C0A",
">  c #212C18",
",  c #314005",
"<  c #354405",
"1  c #324801",
"2  c #394F01",
"3  c #334208",
"4  c #33400B",
"5  c #38470A",
"6  c #3C4C0B",
"7  c #3B5301",
"8  c #3C5501",
"9  c #3E5601",
"0  c #3D4F2E",
"q  c #39433C",
"w  c #415408",
"e  c #435608",
"r  c #4A5E0A",
"t  c #425311",
"y  c #4F6C02",
"u  c #4F6E02",
"i  c #51670C",
"p  c #52680C",
"a  c #5B7B03",
"s  c #597C03",
"d  c #5A7D03",
"f  c #5C7D03",
"g  c #526712",
"h  c #556A13",
"j  c #5D7610",
"k  c #5A7115",
"l  c #5B701A",
"z  c #485C37",
"x  c #5D722B",
"c  c #5E742C",
"v  c #4E643C",
"b  c #60752C",
"n  c #61792C",
"m  c #5F8203",
"M  c #618403",
"N  c #638603",
"B  c #608504",
"V  c #628804",
"C  c #648A04",
"Z  c #668B04",
"A  c #6C9204",
"S  c #6F9604",
"D  c #709704",
"F  c #668019",
"G  c #67811A",
"H  c #728E1D",
"J  c #729015",
"K  c #749316",
"L  c #789717",
"P  c #77941F",
"I  c #77A105",
"U  c #78A205",
"Y  c #6F8822",
"T  c #6E8926",
"R  c #6F8926",
"E  c #718C26",
"W  c #728E26",
"Q  c #738F26",
"!  c #779225",
"~  c #769227",
"^  c #769327",
"/  c #799526",
"(  c #7E9D21",
")  c #7A952F",
"_  c #6D8535",
"`  c #6E8534",
"'  c #81A219",
"]  c #82A41B",
"[  c #87AA1C",
"{  c #8AAE1D",
"}  c #8CAF1D",
"|  c #8CB01D",
" . c #8FB31D",
".. c #8EB21E",
"X. c #8FB31E",
"o. c #8FB41E",
"O. c #90B41E",
"+. c #90B51E",
"@. c #91B71E",
"#. c #92B71E",
"$. c #93B81E",
"%. c #93B91E",
"&. c #93B91F",
"*. c #94BA1F",
"=. c #95BB1F",
"-. c #83A323",
";. c #88A925",
":. c #8BAC25",
">. c #8CAE26",
",. c #88A72B",
"<. c #89A72C",
"1. c #8BAA2C",
"2. c #94B729",
"3. c #95B829",
"4. c #97BB2A",
"5. c #9CBF2B",
"6. c #98B931",
"7. c #99BB32",
"8. c #9BC02B",
"9. c #9CC12B",
"0. c #9EC32C",
"q. c #9FC42C",
"w. c #A0C62D",
"e. c #A2C82D",
"r. c #A2C92D",
"t. c #A3CA2E",
"y. c #A4C92D",
"u. c #A4CB2E",
"i. c #A5CA37",
"p. c #B1D83B",
/* pixels */
"=.=.=.X.=.X.X.=.X.=.=.y.=.X.X.=.X.=.X.=.X.=.X.X.=.=.X.=.=.X.X.=.",
"=.X.=.=.X.=.=.y.=.=.X.X.=.=.v v q [ =.X.=.=.=.=.q.=.=.=.=.=.=.X.",
"=.=.X.X.=.X.=.=.q.=.y.C =.U C C C v =.q =.[ =.=.X.y.=.y.=.X.X.=.",
"X.X.X.=.=.X.=.X.=.C U U =.=.U =.U U v C v q q =.X.=.=.=.X.=.=.X.",
"X.=.=.q.=.=.X.=.C U %.6./ l 3 + % 5 i a B C v q =.=.X.=.[ =.y.=.",
"=.y.q.=.=.X.C U =.<.:                   = M v C v q X.X.=.X.q.y.",
"=.y.=.=.=.C U =.=.k                         M =.C v q =.[ =.=.q.",
"=.=.=.X.[ u.u.p.p.p   4 ! :.9.%.+.3.H #     = $.=.U C =.X.=.=.X.",
"=.[ =.=.C =.p.p.p.G K r.p.p.p.p.u.=.U '       >.=.U v q =.X.X.=.",
"X.=.X.C =.p.p.p.u.=.u.p.p.p.p.p.p.u.=.U w     1.u.=.C v q =.=.X.",
"=.X.=.U =.u.p.u.=.=.p.p.p.p.p.p.u.u.=.U h     -.p.u.C v q =.=.=.",
"X.[ C U U =.u.=.U u.p.p.p.u.p.u.u.=.u.$.-   o i.u.u.U C v q X.=.",
"X.[ C =.u.p.p.u.=.=.u.p.u.p.u.p.=.u.=.y     Y u.u.=.U C q X.=.=.",
"=.v U =.p.p.p.p.u.U =.u.u.u.u.#.S L e     r w.u.=.U C v C q =.=.",
"=.X.C u.p.u.p.u.u.=.u.=.u.*.          ; P e.=.U U C U C v q q X.",
"=.v U =.u.u.u.=.=.u.p.p.p.t.        & ,.8.=.=.=.U U C C q q =.=.",
"X.v C U =.=.=.=.u.p.p.u.p.t.            O F w.=.=.U C v C v q X.",
"=.X.v C U =.=.U u.p.u.p.u.u.u.*.0.4.1.6     2 I U =.U C C v q =.",
"=.v C v C U C U =.u.u.u.u.=.u.U u.u.=.q.t     J U U U C v q v =.",
"=.v C C C C U U =.=.=.u.=.u.=.=.u.=.u.p.(     g =.U C C v v q [ ",
"=.v C U C U =.U U =.U =.u.U =.U =.u.u.p.7.    , =.C C v C v q =.",
"y.q v U U C U =.U U =.U =.=.U U U =.u.u.;.    < U v v C v q q =.",
"q.q v C C U C U C U U =.u.u.u.=.=.U =.=.j     1 C C C C v q q.=.",
"=.X.q v C C v C m 8 D =.=.u.=.=.U =.U N .     f C v C v q v q X.",
"X.=.=.q v C C v u   X 9 J A +.I  .Z 7       * V v v C v v q =.=.",
"=.[ q v q v C C 0                         @ d v v C v v q q X.=.",
"=.=.X.q q v v v s $                     > z v v v v v q q } [ =.",
"=.X.=.=.q q v v v q v v v C C C v v v C C v q v v q q q ^ *.=.X.",
"=.=.q.=.=.` q v q v q v v v v v v v q v v v v q q x q ~ &.X.=.=.",
"=.y.X.=.=.q._ q n q v q q v v v q q v v q q q c q Q ] *.=.y.=.X.",
"y.q.=.=.X.=.q.X.} E q b q q q q q q q q c q ) { ..@.[ X.=.=.y.=.",
"q.=.X.=.=.=.X.=.=.[ #.O...Q R W T W W 2.| 5.o.#.[ X.=.=.X.=.q.=."
};
