/* XPM */
static char *result[] = {
/* columns rows colors chars-per-pixel */
"32 32 91 1 ",
"  c black",
". c #060901",
"X c #0A0F01",
"o c #151C02",
"O c #212B05",
"+ c #2C3806",
"@ c #2D3B21",
"# c #374C01",
"$ c #384806",
"% c #34420B",
"& c #39480D",
"* c #3B5301",
"= c #3D5501",
"- c #39433C",
"; c #3F5230",
": c #455909",
"> c #455712",
", c #466102",
"< c #486202",
"1 c #556C0D",
"2 c #527103",
"3 c #5A720F",
"4 c #506416",
"5 c #566A18",
"6 c #5A6F1A",
"7 c #5E741B",
"8 c #647D18",
"9 c #667E1E",
"0 c #5D722B",
"q c #5E742C",
"w c #4E643C",
"e c #60752C",
"r c #61792C",
"t c #628603",
"y c #648A04",
"u c #668112",
"i c #6D8A14",
"p c #769516",
"a c #7B9A18",
"s c #78A205",
"d c #6C8521",
"f c #6E8721",
"g c #6F8822",
"h c #6E8926",
"j c #6F8926",
"k c #718C26",
"l c #728E26",
"z c #738F26",
"x c #769227",
"c c #769327",
"v c #7D9927",
"b c #7A952F",
"n c #6D8535",
"m c #6E8534",
"M c #82A31A",
"N c #82A41B",
"B c #87AA1C",
"V c #8AAE1C",
"C c #8AAE1D",
"Z c #8CAF1D",
"A c #8CB01D",
"S c #8EB21E",
"D c #8FB31E",
"F c #8FB41E",
"G c #90B41E",
"H c #91B71E",
"J c #92B71E",
"K c #93B91F",
"L c #94BA1F",
"P c #95BB1F",
"I c #809F22",
"U c #87A824",
"Y c #8BAC25",
"T c #93B628",
"R c #94B729",
"E c #92B32F",
"W c #99BD2A",
"Q c #9CBF2B",
"! c #93B430",
"~ c #9EC32C",
"^ c #9FC42C",
"/ c #9FC334",
"( c #A1C72D",
") c #A2C82D",
"_ c #A2C92D",
"` c #A3CA2E",
"' c #A4C92D",
"] c #A4CB2E",
"[ c #A8CD37",
"{ c #ADD33A",
"} c #B1D83B",
/* pixels */
"PPPDPDDPDPP'PDDPDPDPDPDDPPDPPDDP",
"PDPPDPP'PPDDPPww-BPDPPPP^PPPPPPD",
"PPDDPDPP^P'yPsyyywP-PBPPD'P'PDDP",
"DDDPPDPDPyssPPsPsswyw--PDPPPDPPD",
"DPP^PPDPysP}}}]s}~$  2w-PPDPBP'P",
"P'^PPDysP}}}}}}P)6   twyw-DDPD^'",
"P'PPPysPP]}}}}}]g    asPyw-PBPP^",
"PPPDB]]}}P]}}]]i  o  aPPPsyPDPPD",
"PBPPyP}}}]P]}}!. 1,  U]]Psw-PDDP",
"DPDyP}}}]P]}}/O 5(3  U}}]Pyw-PPD",
"PDPsP]}]PP}}[& >~]3  U}]}]yw-PPP",
"DByssP]Ps]}{4 %W]P8  E]}]]syw-DP",
"DByP]}}]PP`9 OT}P]3  E}]]Psy-DPP",
"PwsP}}}}]su XY]PsP3  a]]Psywy-PP",
"PDy]}]}]]p  IPsPss3  UPssysyw--D",
"PwsP]]]PMo v}]PsP]d  aPPssyy--PP",
"DwysPPPV+ f]}]}PP}d  U]PPsywyw-D",
"PDwysPP= 7_}]]]P]]d  asssPsyyw-P",
"Pwywysy#                #ssyw-wP",
"Pwyyyys#                :syyww-B",
"PwysysP#                :yywyw-P",
"'-wssysPssPsPPsssP8  UPPswwyw--P",
"^-wyysysyssP]]]PPs3  tsyyyyyw-^P",
"PD-wyywysysPP]PPsP<  tssywyw-w-D",
"DPP-wyywyyssPsPsPs*  2yywwyww-PP",
"PB-w-wyywwyssysssy@  2ywwyww--DP",
"PPD--wwwywwyysyyyy*  ;wwwww--ZBP",
"PDPP--www-wwwyyywwwyyw-ww---cLPD",
"PP^PPm-w-w-wwwwwww-wwww--0-xKDPP",
"P'DPP^n-r-w--www--ww---q-zNLP'PD",
"'^PPDP^DZk-e--------q-bCSHBDPP'P",
"^PDPPPDPPBJGSzjlhllRAQFJBDPPDP^P"
};
