/* XPM */
static char *result[] = {
/* columns rows colors chars-per-pixel */
"32 32 107 2 ",
"   c black",
".  c #020500",
"X  c #030502",
"o  c #0C1201",
"O  c #0E1700",
"+  c #151C02",
"@  c #1A2700",
"#  c #1E2803",
"$  c #182111",
"%  c #2D3A06",
"&  c #2E3C07",
"*  c #1E2520",
"=  c #2F4301",
"-  c #314601",
";  c #3A4B06",
":  c #3D4E07",
">  c #38470A",
",  c #395101",
"<  c #3A5301",
"1  c #3F5701",
"2  c #324125",
"3  c #39433C",
"4  c #445F02",
"5  c #475B0A",
"6  c #4B6902",
"7  c #4F6C02",
"8  c #566D0E",
"9  c #537303",
"0  c #5A7D03",
"q  c #5D7F03",
"w  c #58700E",
"e  c #526712",
"r  c #5F7717",
"t  c #60771C",
"y  c #647B1E",
"u  c #677F1F",
"i  c #405331",
"p  c #5D722B",
"a  c #5E742C",
"s  c #4D633B",
"d  c #4E643C",
"f  c #60752C",
"g  c #61792C",
"h  c #608203",
"j  c #638603",
"k  c #638703",
"l  c #648703",
"z  c #638804",
"x  c #648A04",
"c  c #6D9404",
"v  c #6F9704",
"b  c #729A04",
"n  c #769F05",
"m  c #68801F",
"M  c #749216",
"N  c #76931E",
"B  c #7C9C18",
"V  c #7D9D18",
"C  c #77A105",
"Z  c #78A105",
"A  c #78A205",
"S  c #6E8926",
"D  c #6F8926",
"F  c #718C26",
"G  c #728E26",
"H  c #738F26",
"J  c #769227",
"K  c #769327",
"L  c #7D9C21",
"P  c #7A952F",
"I  c #6D8535",
"U  c #6E8534",
"Y  c #82A41B",
"T  c #87AA1C",
"R  c #8AAE1C",
"E  c #8AAE1D",
"W  c #8CAF1D",
"Q  c #8CB01D",
"!  c #8EB21D",
"~  c #8EB21E",
"^  c #8FB31E",
"/  c #8FB41E",
"(  c #90B41E",
")  c #90B51E",
"_  c #91B61E",
"`  c #91B71E",
"'  c #92B71E",
"]  c #93B91F",
"[  c #94BA1F",
"{  c #95BB1F",
"}  c #81A022",
"|  c #85A523",
" . c #89AA25",
".. c #8CAE26",
"X. c #8FAF2E",
"o. c #94B729",
"O. c #92B32F",
"+. c #9CBF2B",
"@. c #94B530",
"#. c #96B731",
"$. c #9FC42C",
"%. c #9FC52C",
"&. c #9EC134",
"*. c #A4C92D",
"=. c #A4CB2E",
"-. c #B0D73B",
";. c #B1D83B",
/* pixels */
"{ { { ^ { ^ ^ { ^ { { *.{ ^ ^ { ^ { ^ { ^ { ^ ^ { { ^ { { ^ ^ { ",
"{ ^ { { ^ { { *.{ { ^ ^ { { d d 3 T { ^ { { { { $.{ { { { { { ^ ",
"{ { ^ ^ { ^ { { $.{ *.x { A x x x d { 3 { T { { ^ *.{ *.{ ^ ^ { ",
"^ ^ ^ { { ^ { ^ { x A A { { A { A A d x d 3 3 { ^ { { { ^ { { ^ ",
"^ { { $.{ { ^ { x k                           * { { ^ { T { *.{ ",
"{ *.$.{ { ^ x A { @.                          , d 3 ^ ^ { ^ $.*.",
"{ *.{ { { x A { {  .                          w x d 3 { T { { $.",
"{ { { ^ T =.=.;.;.B     u =.=.{ { =.=.{ A { { { { A x { ^ { { ^ ",
"{ T { { x { ;.;.;. .    u ;.;.;.=.{ A { { =.=.=.{ A d 3 { ^ ^ { ",
"^ { ^ x { ;.;.;.=.B     u ;.;.;.;.=.{ A { =.;.;.=.{ x d 3 { { ^ ",
"{ ^ { A { =.;.=.{ B     u ;.;.;.=.=.{ A =.=.;.=.;.=.x d 3 { { { ",
"^ T x A A { =.{ A  .    u =.;.=.=.{ =.{ =.;.=.;.=.=.A x d 3 ^ { ",
"^ T x { =.;.;.=.{ B     r ;.=.;.{ =.{ A { ;.;.=.=.{ A x 3 ^ { { ",
"{ d A { ;.;.;.;.=.k     # % + o @ : w h n { =.=.{ A x d x 3 { { ",
"{ ^ x =.;.=.;.=.=.B                     > ..{ A A x A x d 3 3 ^ ",
"{ d A { =.=.=.{ {  .                      o V { A A x x 3 3 { { ",
"^ d x A { { { { =.#.t L &.%.-.' R O.y       & ) { A x d x d 3 ^ ",
"{ ^ d x A { { A =.;.=.;.=.=.=.{ =.=.;.|       q A { A x x d 3 { ",
"{ d x d x A x A { =.=.=.=.{ =.A =.=.{ =.m     w A A A x d 3 d { ",
"{ d x x x x A A { { { =.{ =.{ { =.{ =.;.}     e { A x x d d 3 T ",
"{ d x A x A { A A { A { =.A { A { =.=.;.X.    5 { x x d x d 3 { ",
"*.3 d A A x A { A A { A { { A A A { =.=.N     8 A d d x d 3 3 { ",
"$.3 d x x A x A x A A { =.=.=.{ { A { [ ;     6 x x x x d 3 $.{ ",
"{ ^ 3 d x x d x l < v { { =.{ { A { Z 7     O b x d x d 3 d 3 ^ ",
"^ { { 3 d x x d 9   . 1 M c _ C ! j =       4 x d d x d d 3 { { ",
"{ T 3 d 3 d x x i                         - z d d x d d 3 3 ^ { ",
"{ { ^ 3 3 d d d 0 $                   X 2 s d d d d d 3 3 W T { ",
"{ ^ { { 3 3 d d d 3 d d d x x x d d d x x d 3 d d 3 3 3 K [ { ^ ",
"{ { $.{ { U 3 d 3 d 3 d d d d d d d 3 d d d d 3 3 p 3 J ] ^ { { ",
"{ *.^ { { $.I 3 g 3 d 3 3 d d d 3 3 d d 3 3 3 a 3 H Y [ { *.{ ^ ",
"*.$.{ { ^ { $.^ W F 3 f 3 3 3 3 3 3 3 3 a 3 P E ~ ` T ^ { { *.{ ",
"$.{ ^ { { { ^ { { T ' ( ~ H D G S G G o.Q +./ ' T ^ { { ^ { $.{ "
};
