/* XPM */
static char *result[] = {
/* columns rows colors chars-per-pixel */
"32 32 146 2 ",
"   c black",
".  c #030700",
"X  c #040600",
"o  c #050800",
"O  c #070D00",
"+  c #0B1001",
"@  c #0C1201",
"#  c #0E1700",
"$  c #0F1601",
"%  c #111B00",
"&  c #121C00",
"*  c #152000",
"=  c #1C2A00",
"-  c #182110",
";  c #223100",
":  c #233301",
">  c #253501",
",  c #2A3606",
"<  c #2B3D01",
"1  c #2C3806",
"2  c #2D3A06",
"3  c #2E3C07",
"4  c #2B3708",
"5  c #313E0A",
"6  c #2E3D23",
"7  c #2F4201",
"8  c #334701",
"9  c #334205",
"0  c #354B01",
"q  c #394A06",
"w  c #38460D",
"e  c #39480A",
"r  c #3E5601",
"t  c #344427",
"y  c #39433C",
"u  c #425B01",
"i  c #465A09",
"p  c #485C0A",
"a  c #435411",
"s  c #4B5E10",
"d  c #4B5D14",
"f  c #486302",
"g  c #4E6C02",
"h  c #547503",
"j  c #5C740F",
"k  c #5D750F",
"l  c #4E6115",
"z  c #536813",
"x  c #586E14",
"c  c #5C7416",
"v  c #5E7810",
"b  c #5B711A",
"n  c #607817",
"m  c #627A18",
"M  c #445834",
"N  c #5D722B",
"B  c #5E742C",
"V  c #4E633C",
"C  c #4E643C",
"Z  c #60752C",
"A  c #61792C",
"S  c #5D8103",
"D  c #5F8203",
"F  c #618403",
"G  c #628704",
"H  c #658903",
"J  c #638804",
"K  c #648A04",
"L  c #688D04",
"P  c #6B9104",
"I  c #739B05",
"U  c #749D05",
"Y  c #6F8A1C",
"T  c #708E15",
"R  c #708B1C",
"E  c #74901E",
"W  c #77941F",
"Q  c #7C9D18",
"!  c #7E9E19",
"~  c #7F9F19",
"^  c #77A105",
"/  c #78A205",
"(  c #6E8926",
")  c #6F8926",
"_  c #718C26",
"`  c #728E26",
"'  c #738F26",
"]  c #769124",
"[  c #769227",
"{  c #769327",
"}  c #7D9B21",
"|  c #7A952F",
" . c #6D8535",
".. c #6E8534",
"X. c #80A119",
"o. c #83A41A",
"O. c #82A41B",
"+. c #84A61A",
"@. c #87AA1B",
"#. c #87AA1C",
"$. c #89AC1C",
"%. c #8AAE1D",
"&. c #8CAF1D",
"*. c #8CB01D",
"=. c #8DB11D",
"-. c #8EB31D",
";. c #8EB21E",
":. c #8FB31E",
">. c #8FB41E",
",. c #90B41E",
"<. c #90B51E",
"1. c #91B71E",
"2. c #92B71E",
"3. c #93B91E",
"4. c #93B91F",
"5. c #94BA1F",
"6. c #95BB1F",
"7. c #809F22",
"8. c #8CAD26",
"9. c #8EAD2D",
"0. c #94B729",
"q. c #91B22F",
"w. c #99BD2A",
"e. c #9ABF2B",
"r. c #9CBF2B",
"t. c #98BA31",
"y. c #9CC12B",
"u. c #9DC22B",
"i. c #9FC42C",
"p. c #9FC52C",
"a. c #9DC033",
"s. c #A0C62D",
"d. c #A0C72D",
"f. c #A2C82D",
"g. c #A3CA2E",
"h. c #A4C92D",
"j. c #A4CB2E",
"k. c #A2C635",
"l. c #A4C836",
"z. c #A8CE38",
"x. c #ABD139",
"c. c #AED53A",
"v. c #AFD63A",
"b. c #B0D63B",
"n. c #B0D73B",
"m. c #B1D83B",
/* pixels */
"6.6.6.:.6.:.:.6.:.6.6.h.6.:.:.6.:.6.:.6.:.6.:.:.6.6.:.6.6.:.:.6.",
"6.:.6.6.:.6.6.h.6.6.:.:.6.6.C C y #.6.:.6.6.6.6.i.6.6.6.6.6.6.:.",
"6.6.:.:.6.:.6.6.i.6.h.K 6./ K K K C 6.y 6.#.6.6.:.h.6.h.6.:.:.6.",
":.:.:.6.6.:.6.:.6.K / / 6.6./ 6./ / C K C y y 6.:.6.6.6.:.6.6.:.",
":.6.6.i.6.6.:.6.K / 6.m.m.z.7.u d 2 @ = 0 G C y 6.6.:.6.#.6.h.6.",
"6.h.i.6.6.:.K / 6.m.m.x.] +               I C K C y :.:.6.:.i.h.",
"6.h.6.6.6.K / 6.6.j.k.w                   -./ 6.K C y 6.#.6.6.i.",
"6.6.6.:.#.j.j.m.m.$.3     o m Q =.f.p.! r -.6.6.6./ K 6.:.6.6.:.",
"6.#.6.6.K 6.m.m.b.s     w a.m.m.j.6./ 6.6.j.j.j.6./ C y 6.:.:.6.",
":.6.:.K 6.m.m.m.}     4 l.m.m.m.m.j.6./ 6.j.m.m.j.6.K C y 6.6.:.",
"6.:.6./ 6.j.m.g.9     9.m.m.m.m.j.j.6./ j.j.m.j.m.j.K C y 6.6.6.",
":.#.K / / 6.j.X.    a n.m.j.m.j.j.6.j.6.j.m.j.m.j.j./ K C y :.6.",
":.#.K 6.j.m.m.R     E m.j.m.j.m.6.j.6./ 6.m.m.j.j.6./ K y :.6.6.",
"6.C / 6.m.m.m.b     ~ e.W z 3 $ * q j L / 6.j.j.6./ K C K y 6.6.",
"6.:.K j.m.j.m.1     c $                 n d.6./ / K / K C y y :.",
"6.C / 6.j.j.j.X                           i 3.6./ / K K y y 6.6.",
":.C K / 6.6.6.      5 Y t.y.v.2.*.q.l       W 6.6./ K C K C y :.",
"6.:.C K / 6.6.      u.m.j.j.j.6.j.j.c.x     ; ^ / 6./ K K C y 6.",
"6.C K C K / K       s.j.j.6.j./ j.j.6.w.      @./ / / K C y C 6.",
"6.C K K K K / #     =.j.6.j.6.6.j.6.j.m.e     8.6./ K K C C y #.",
"6.C K / K / 6.7     P 6.j./ 6./ 6.j.j.m.d     Q 6.K K C K C y 6.",
"h.y C / / K / v     T / 6.6./ / / 6.j.j.,     +./ C C K C y y 6.",
"i.y C K K / K F     < 4.j.j.j.6.6./ 6.o.    & G K K K K C y i.6.",
"6.:.y C K K C J >     k 5.j.6.6./ 6.U 8     f / K C K C y C y :.",
":.6.6.y C K K C g       p H <.^ =.D :     % S K C C K C C y 6.6.",
"6.#.y C y C K K C 6                     O h K C C K C C y y :.6.",
"6.6.:.y y C C C K V t .               - M C C C C C C y y &.#.6.",
"6.:.6.6.y y C C C y C C C K K K C C C K K C y C C y y y { 5.6.:.",
"6.6.i.6.6...y C y C y C C C C C C C y C C C C y y N y [ 4.:.6.6.",
"6.h.:.6.6.i. .y A y C y y C C C y y C C y y y B y ' O.5.6.h.6.:.",
"h.i.6.6.:.6.i.:.&._ y Z y y y y y y y y B y | %.;.1.#.:.6.6.h.6.",
"i.6.:.6.6.6.:.6.6.#.2.,.;.' ) ` ( ` ` 0.*.r.>.2.#.:.6.6.:.6.i.6."
};
