/* XPM */
static char *result[] = {
/* columns rows colors chars-per-pixel */
"32 32 91 1 ",
"  c black",
". c #020500",
"X c #050800",
"o c #121801",
"O c #141B02",
"+ c #172300",
"@ c #1C2602",
"# c #1F2805",
"$ c #232E02",
"% c #213000",
"& c #273303",
"* c #263701",
"= c #2F4201",
"- c #324105",
"; c #344305",
": c #3D4E07",
"> c #3F5701",
", c #39433C",
"< c #43550D",
"1 c #475A09",
"2 c #4B5E10",
"3 c #4D6A02",
"4 c #527203",
"5 c #597903",
"6 c #597A03",
"7 c #59710E",
"8 c #5B711A",
"9 c #647D19",
"0 c #657C1E",
"q c #5D722B",
"w c #5E742C",
"e c #4C613A",
"r c #4E643C",
"t c #60752C",
"y c #61792C",
"u c #5F8103",
"i c #648A04",
"p c #769F05",
"a c #678212",
"s c #698513",
"d c #729015",
"f c #769416",
"g c #769516",
"h c #78951F",
"j c #7C9C18",
"k c #76A005",
"l c #77A105",
"z c #78A205",
"x c #6E8926",
"c c #6F8926",
"v c #718C26",
"b c #728E26",
"n c #738F26",
"m c #748F24",
"M c #769227",
"N c #769327",
"B c #7A952F",
"V c #6D8535",
"C c #6E8534",
"Z c #82A31A",
"A c #82A41B",
"S c #87A91B",
"D c #87AA1C",
"F c #88AB1B",
"G c #8BAE1C",
"H c #8AAE1D",
"J c #8CAF1D",
"K c #8CB01D",
"L c #8EB21D",
"P c #8EB21E",
"I c #8FB31E",
"U c #8FB41E",
"Y c #90B41E",
"T c #91B71E",
"R c #92B71E",
"E c #93B91F",
"W c #94BA1F",
"Q c #95BB1F",
"! c #91B428",
"~ c #94B729",
"^ c #99BD2A",
"/ c #9CBF2B",
"( c #98BA31",
") c #9CC12B",
"_ c #9EC42C",
"` c #9FC42C",
"' c #9FC52C",
"] c #A3CA2E",
"[ c #A4C92D",
"{ c #A4CB2E",
"} c #B1D83B",
/* pixels */
"QQQIQIIQIQQ[QIIQIQIQIQIIQQIQQIIQ",
"QIQQIQQ[QQIIQQrr,DQIQQQQ`QQQQQQI",
"QQIIQIQQ`Q[iQziiirQ,QDQQI[Q[QIIQ",
"IIIQQIQIQizzQQzQzzrir,,QIQQQIQQI",
"IQQ`QQIQ*               QQIQDQ[Q",
"Q[`QQIiz:               r,IIQI`[",
"Q[QQQizQ:               ir,QDQQ`",
"QQQID{{}}Q{}}{{QQ{{Ql:  QziQIQQI",
"QDQQiQ}}}{Q{}}}}{QzQg  2Qzr,QIIQ",
"IQIiQ}}}{Q{}}}}}}{Qp-  ({Qir,QQI",
"QIQzQ{}{QQ}}}}}}{{Q6  8{}{ir,QQQ",
"IDizzQ{Qz{}}}{}{{Q'&  !}{{zir,IQ",
"IDiQ{}}{QQ{}{}{}Q{s  0}{{Qzi,IQQ",
"QrzQ}}}}{zQ{{{{QzL@ .F{{Qziri,QQ",
"QIi{}{}{{Q{Q{QzQz3  9{Qzzizir,,I",
"QrzQ{{{QQ{}}}{QzGo O^QQQzzii,,QQ",
"IrizQQQQ{}}{}{}Q7  m}{{QQzirir,I",
"QIrizQQz{}{}{{{SX #){QzzzQziir,Q",
"QririzizQ{{{{Q{>  a{}{{Qzzzir,rQ",
"QriiiizzQQQ{Q{Z  $_}{}{{Qziirr,D",
"QrizizQzzQzQ{z1  h{}}{{QQiirir,Q",
"[,rzzizQzzQzQj  %T{{{{QQzrrir,,Q",
"`,riizizizzQ]<  dzQQQzziiiiir,`Q",
"QI,riirizizQf  ;kQzzizzzirir,r,I",
"IQQ,riiriizp-  uQzizziiirrirr,QQ",
"QD,r,riirri5  =lziriiiirrirr,,IQ",
"QQI,,rrrire+  4iiiirrrrrrrr,,JDQ",
"QIQQ,,rrr,rrriiirrriir,rr,,,NWQI",
"QQ`QQC,r,r,rrrrrrr,rrrr,,q,MEIQQ",
"Q[IQQ`V,y,r,,rrr,,rr,,,w,nAWQ[QI",
"[`QQIQ`IJv,t,,,,,,,,w,BHPTDIQQ[Q",
"`QIQQQIQQDRYPncbxbb~K/URDIQQIQ`Q"
};
