/* XPM */
static char *result[] = {
/* columns rows colors chars-per-pixel */
"32 32 167 2 ",
"   c black",
".  c #030700",
"X  c #040600",
"o  c #050800",
"O  c #070D00",
"+  c #081000",
"@  c #0A1200",
"#  c #0C1201",
"$  c #101602",
"%  c #101900",
"&  c #121801",
"*  c #121901",
"=  c #141C01",
"-  c #161F01",
";  c #192101",
":  c #1C2602",
">  c #1E2803",
",  c #1F2E00",
"<  c #182110",
"1  c #212C02",
"2  c #212B05",
"3  c #222D04",
"4  c #223201",
"5  c #273303",
"6  c #263601",
"7  c #283503",
"8  c #293603",
"9  c #2A3B01",
"0  c #2F3D04",
"q  c #2D3C22",
"w  c #304301",
"e  c #324701",
"r  c #314005",
"t  c #344308",
"y  c #35430C",
"u  c #37450C",
"i  c #38470A",
"p  c #3A4A0A",
"a  c #3B490E",
"s  c #374729",
"d  c #39433C",
"f  c #445D02",
"g  c #415408",
"h  c #465A09",
"j  c #405010",
"k  c #415210",
"l  c #475913",
"z  c #4A6702",
"x  c #4E6B02",
"c  c #4D6C02",
"v  c #546B0D",
"b  c #517003",
"n  c #577603",
"m  c #5B7E03",
"M  c #5E7F03",
"N  c #5A720F",
"B  c #5B740F",
"V  c #506316",
"C  c #546A13",
"Z  c #586D19",
"A  c #5B7215",
"S  c #5E7616",
"D  c #637D11",
"F  c #607917",
"G  c #637C18",
"H  c #657C1E",
"J  c #435633",
"K  c #5D722B",
"L  c #5E742C",
"P  c #4D633C",
"I  c #4E643C",
"U  c #60752C",
"Y  c #61792C",
"T  c #648703",
"R  c #628704",
"E  c #658903",
"W  c #658A03",
"Q  c #648A04",
"!  c #668A04",
"~  c #6D9304",
"^  c #6F9604",
"/  c #709804",
"(  c #729A04",
")  c #759E05",
"_  c #6C871B",
"`  c #6E891C",
"'  c #708E15",
"]  c #718D1D",
"[  c #7B9B18",
"{  c #7E9E19",
"}  c #7F9F19",
"|  c #76A005",
" . c #78A105",
".. c #78A205",
"X. c #6E8926",
"o. c #6F8926",
"O. c #718C26",
"+. c #728E26",
"@. c #738F26",
"#. c #759024",
"$. c #769227",
"%. c #769327",
"&. c #799720",
"*. c #7C9B21",
"=. c #7D9927",
"-. c #7A952F",
";. c #7E9B28",
":. c #7F9C28",
">. c #6D8535",
",. c #6E8534",
"<. c #82A41B",
"1. c #85A81B",
"2. c #86A81B",
"3. c #87AA1C",
"4. c #89AC1C",
"5. c #8BAE1C",
"6. c #8AAE1D",
"7. c #8CAF1D",
"8. c #8CB01D",
"9. c #8EB21D",
"0. c #8EB31D",
"q. c #8EB21E",
"w. c #8FB31E",
"e. c #8FB41E",
"r. c #90B41E",
"t. c #90B51E",
"y. c #91B61E",
"u. c #91B71E",
"i. c #92B71E",
"p. c #93B81E",
"a. c #93B91F",
"s. c #94BA1F",
"d. c #95BB1F",
"f. c #85A624",
"g. c #86A724",
"h. c #88A824",
"j. c #89AA25",
"k. c #83A029",
"l. c #84A22A",
"z. c #8CAB2D",
"x. c #8EB127",
"c. c #93B628",
"v. c #93B728",
"b. c #94B728",
"n. c #94B729",
"m. c #96B929",
"M. c #97BB2A",
"N. c #98BC2A",
"B. c #9ABE2B",
"V. c #9ABF2B",
"C. c #9CBF2B",
"Z. c #98B931",
"A. c #9CC12B",
"S. c #9EC32C",
"D. c #9FC42C",
"F. c #9FC52C",
"G. c #9DC033",
"H. c #A3CA2E",
"J. c #A4C92D",
"K. c #A4CB2E",
"L. c #A4C836",
"P. c #A6CB37",
"I. c #A8CE38",
"U. c #A9CE38",
"Y. c #AED43A",
"T. c #B0D63B",
"R. c #B1D83B",
/* pixels */
"d.d.d.w.d.w.w.d.w.d.d.J.d.w.w.d.w.d.w.d.w.d.w.w.d.d.w.d.d.w.w.d.",
"d.w.d.d.w.d.d.J.d.d.w.w.d.d.I I d 3.d.w.d.d.d.d.D.d.d.d.d.d.d.w.",
"d.d.w.w.d.w.d.d.D.d.J.Q d...Q Q Q I d.d d.3.d.d.w.J.d.J.d.w.w.d.",
"w.w.w.d.d.w.d.w.d.Q ....d.d...d.....I Q I d d d.w.d.d.d.w.d.d.w.",
"w.d.d.D.d.d.w.d.Q ..d.Y.z.H i % 2 p v M R Q I d d.d.w.d.3.d.J.d.",
"d.J.D.d.d.w.Q ..d.R.Z.a                 0 W I Q I d w.w.d.w.D.J.",
"d.J.d.d.d.Q ..d.d.h.$                     # T d.Q I d d.3.d.d.D.",
"d.d.d.w.3.K.K.R.U.1     u &.M.i.t.b.` ;     5 y.d...Q d.w.d.d.w.",
"d.3.d.d.Q d.R.R.l.    t U.R.R.R.K.d...1.-     f.d...I d d.w.w.d.",
"w.d.w.Q d.R.R.R.G     :.R.R.R.R.R.K.d...B     ;.K.d.Q I d d.d.w.",
"d.w.d...d.K.R.K.N     k.R.R.R.R.K.K.d...]     *.R.K.Q I d d.d.d.",
"w.3.Q ....d.K.d.n     V T.K.R.K.K.d.K.d.S     G.K.K...Q I d w.d.",
"w.3.Q d.K.R.R.K.0.;     A I.K.R.d.K.d./ *   Z K.K.d...Q d w.d.d.",
"d.I ..d.R.R.R.R.K.E =     > _ 2...d.9.e   0 B.K.d...Q I Q d d.d.",
"d.w.Q K.R.K.R.K.K.d.v.g         9 x 8   C N.d.....Q ..Q I d d w.",
"d.I ..d.K.K.K.d.d.K.Y.=.  o           y x.d.d.d.....Q Q d d d.d.",
"w.I Q ..d.d.d.d.K.L.j   l c.P.' h         F F.d.d...Q I Q I d w.",
"d.w.I Q ..d.d...V.a   k A.K.K.d.K.N.#.&     e ) ..d...Q Q I d d.",
"d.I Q I Q ..Q ..v     j.K.d.K...K.K.d.m.a     D ......Q I d I d.",
"d.I Q Q Q Q ..( X   : H.d.K.d.d.K.d.K.R.g.    3 d...Q Q I I d 3.",
"d.I Q ..Q ..d.!     w d.K...d...d.K.K.R.U.      d.Q Q I Q I d d.",
"J.d I ....Q ..{     7  .d.d.......d.K.K.S.      ..I I Q I d d d.",
"D.d I Q Q ..Q ~       } K.K.K.d.d...d.d.[     @ Q Q Q Q I d D.d.",
"d.w.d I Q Q I Q 6     r 5.K.d.d...d...( 4     f Q I Q I d I d w.",
"w.d.d.d I Q Q I c       1 n 4.| p.^ z ,     O m I I Q I I d d.d.",
"d.3.d I d I Q Q I q                       . b I I Q I I d d w.d.",
"d.d.w.d d I I I Q P s +                 < J I I I I I d d 7.3.d.",
"d.w.d.d.d d I I I d I I I Q Q Q I I I Q Q I d I I d d d %.s.d.w.",
"d.d.D.d.d.,.d I d I d I I I I I I I d I I I I d d K d $.a.w.d.d.",
"d.J.w.d.d.D.>.d Y d I d d I I I d d I I d d d L d @.<.s.d.J.d.w.",
"J.D.d.d.w.d.D.w.7.O.d U d d d d d d d d L d -.6.q.u.3.w.d.d.J.d.",
"D.d.w.d.d.d.w.d.d.3.i.r.q.@.o.+.X.+.+.n.8.C.e.i.3.w.d.d.w.d.D.d."
};
