/* XPM */
static char *result[] = {
/* columns rows colors chars-per-pixel */
"32 32 152 2 ",
"   c black",
".  c #020500",
"X  c #050800",
"o  c #060901",
"O  c #0A1100",
"+  c #0A1200",
"@  c #0C1201",
"#  c #0C1400",
"$  c #0E1700",
"%  c #121801",
"&  c #151C02",
"*  c #1A2402",
"=  c #1C2503",
"-  c #1E2802",
";  c #1E2803",
":  c #232E02",
">  c #242F04",
",  c #213000",
"<  c #273303",
"1  c #253601",
"2  c #2B3D01",
"3  c #2E3B09",
"4  c #313F07",
"5  c #313E0A",
"6  c #364605",
"7  c #384D01",
"8  c #384806",
"9  c #334208",
"0  c #33400B",
"q  c #3B4B0B",
"w  c #39433C",
"e  c #425C01",
"r  c #46580E",
"t  c #495C0F",
"y  c #425311",
"u  c #456102",
"i  c #476202",
"p  c #4D620B",
"a  c #52690D",
"s  c #576E0E",
"d  c #597B03",
"f  c #5C740F",
"g  c #4E6311",
"h  c #4E6115",
"j  c #506316",
"k  c #536813",
"l  c #556A13",
"z  c #566C14",
"x  c #576D14",
"c  c #596F15",
"v  c #586C19",
"b  c #5F7810",
"n  c #5B701A",
"m  c #5F761C",
"M  c #607A10",
"N  c #607917",
"B  c #667F19",
"V  c #647B1E",
"C  c #455935",
"Z  c #5D722B",
"A  c #5E742C",
"S  c #4C623B",
"D  c #4E643C",
"F  c #60752C",
"G  c #61792C",
"H  c #5E8304",
"J  c #5F8304",
"K  c #638703",
"L  c #648703",
"P  c #648A04",
"I  c #6A8F04",
"U  c #6D9404",
"Y  c #719904",
"T  c #749D05",
"R  c #678212",
"E  c #698513",
"W  c #6E8B14",
"Q  c #6C871B",
"!  c #6F8B1C",
"~  c #708E15",
"^  c #718E15",
"/  c #7D9D18",
"(  c #76A005",
")  c #77A005",
"_  c #78A205",
"`  c #6A8320",
"'  c #6E8926",
"]  c #6F8926",
"[  c #718C26",
"{  c #728E26",
"}  c #738F26",
"|  c #769227",
" . c #769327",
".. c #7C9A20",
"X. c #7F9E22",
"o. c #7A952F",
"O. c #6D8535",
"+. c #6E8534",
"@. c #83A51A",
"#. c #82A41B",
"$. c #87AA1C",
"%. c #88AB1B",
"&. c #8AAE1D",
"*. c #8CAF1C",
"=. c #8CAF1D",
"-. c #8CB01D",
";. c #8DB11D",
":. c #8EB21D",
">. c #8EB21E",
",. c #8FB31E",
"<. c #8FB41D",
"1. c #8FB41E",
"2. c #90B41E",
"3. c #91B71E",
"4. c #92B71E",
"5. c #93B91E",
"6. c #93B91F",
"7. c #94B91F",
"8. c #94BA1F",
"9. c #95BB1F",
"0. c #81A022",
"q. c #81A122",
"w. c #85A624",
"e. c #87A724",
"r. c #88A925",
"t. c #89AB25",
"y. c #8BAD26",
"u. c #88A72B",
"i. c #8AA92C",
"p. c #91B428",
"a. c #94B729",
"s. c #9ABF2B",
"d. c #9CBF2B",
"f. c #94B530",
"g. c #94B630",
"h. c #95B730",
"j. c #98BA32",
"k. c #9DC22C",
"l. c #9DC32C",
"z. c #9EC42C",
"x. c #9FC42C",
"c. c #9DC033",
"v. c #A1C72D",
"b. c #A3CA2E",
"n. c #A4C92D",
"m. c #A4CB2E",
"M. c #A6CA37",
"N. c #A6CB37",
"B. c #A9CF38",
"V. c #ADD33A",
"C. c #AED53A",
"Z. c #B1D83B",
/* pixels */
"9.9.9.,.9.,.,.9.,.9.9.n.9.,.,.9.,.9.,.9.,.9.,.,.9.9.,.9.9.,.,.9.",
"9.,.9.9.,.9.9.n.9.9.,.,.9.9.D D w $.9.,.9.9.9.9.x.9.9.9.9.9.9.,.",
"9.9.,.,.9.,.9.9.x.9.n.P 9._ P P P D 9.w 9.$.9.9.,.n.9.n.9.,.,.9.",
",.,.,.9.9.,.9.,.9.P _ _ 9.9._ 9._ _ D P D w w 9.,.9.9.9.,.9.9.,.",
",.9.9.x.9.9.,.9.P _ 9.V.u.m 9 # 5 g E Y P P D w 9.9.,.9.$.9.n.9.",
"9.n.x.9.9.,.P _ 9.Z.h.0               & W _ D P D w ,.,.9.,.x.n.",
"9.n.9.9.9.P _ 9.9.0.o                     R _ 9.P D w 9.$.9.9.x.",
"9.9.9.,.$.m.m.Z.c.@     h e.k.7.<.r.t       / 9.9._ P 9.,.9.9.,.",
"9.$.9.9.P 9.Z.Z.v     x C.Z.Z.Z.m.9.) a     r m.9._ D w 9.,.,.9.",
",.9.,.P 9.Z.Z.N.    X M.Z.Z.Z.Z.Z.m.9.T :     j.m.9.P D w 9.9.,.",
"9.,.9._ 9.m.Z.w.    j Z.Z.Z.Z.Z.m.m.9._ Q     ! Z.m.P D w 9.9.9.",
",.$.P _ _ 9.m.^     V Z.Z.m.Z.m.m.9.m.9.e.    n m.m._ P D w ,.9.",
",.$.P 9.m.Z.Z.X.    l Z.m.Z.m.Z.9.m.9._ @.    q m.9._ P w ,.9.9.",
"9.D _ 9.Z.Z.Z.g.    - v.m.m.m.9._ 9.9._ U     > 9._ P D P w 9.9.",
"9.,.P m.Z.m.Z.z.%     b b.9._ 9._ _ 9.m.p.    $ _ P _ P D w w ,.",
"9.D _ 9.m.m.m.9.f       n y.:.( 5.s.f.` =     < _ _ P P w w 9.9.",
",.D P _ 9.9.9.9.z.y                           8 9._ P D P D w ,.",
"9.,.D P _ 9.9._ m.B.k                 ; c     7 _ 9._ P P D w 9.",
"9.D P D P _ P _ 9.m.m.t.N 6 = O 4 z ~ l.i.    M _ _ _ P D w D 9.",
"9.D P P P P _ _ 9.9.9.m.9.m.9.9.m.9.m.Z.B     q.9._ P P D D w $.",
"9.D P _ P _ 9._ _ 9._ 9.m._ 9._ 9.m.m.C.3   X *.9.P P D P D w 9.",
"n.w D _ _ P _ 9._ _ 9._ 9.9._ _ _ 9.m...    p 9._ D D P D w w 9.",
"x.w D P P _ P _ P _ _ 9.m.m.m.9.9._ %.*     L P P P P P D w x.9.",
"9.,.w D P P D P _ P _ 9.9.m.9.9._ @.,     e _ _ P D P D w D w ,.",
",.9.9.w D P P D P d i I 4.( ;.K s .     2 J P P D D P D D w 9.9.",
"9.$.w D w D P P D C                   1 H P P D D P D D w w ,.9.",
"9.9.,.w w D D D P C               + u S D D D D D D D w w =.$.9.",
"9.,.9.9.w w D D D w D D D P P P D D D P P D w D D w w w  .8.9.,.",
"9.9.x.9.9.+.w D w D w D D D D D D D w D D D D w w Z w | 6.,.9.9.",
"9.n.,.9.9.x.O.w G w D w w D D D w w D D w w w A w } #.8.9.n.9.,.",
"n.x.9.9.,.9.x.,.=.[ w F w w w w w w w w A w o.&.>.3.$.,.9.9.n.9.",
"x.9.,.9.9.9.,.9.9.$.4.2.>.} ] { ' { { a.-.d.1.4.$.,.9.9.,.9.x.9."
};
