/* XPM */
static char *result[] = {
/* columns rows colors chars-per-pixel */
"32 32 23 1 ",
"  c #760000",
". c #4D3B39",
"X c #534721",
"o c #444444",
"O c #77584A",
"+ c #705654",
"@ c #767678",
"# c #AD0000",
"$ c #FF2627",
"% c #8B5E4A",
"& c #A77E5D",
"* c #8F7772",
"= c #87AA1C",
"- c #8FB31E",
"; c #95BB1F",
": c #9FC42C",
"> c #A4C92D",
", c #858587",
"< c #9F8781",
"1 c #B7A099",
"2 c #B7B7BB",
"3 c #D9D9DD",
"4 c white",
/* pixels */
":>;;-;:;>--;>;;;;;;-;=;;>;-;>-;;",
";:---;;-;;=;....;>;....;;>;>:;;-",
";-;;=;;......+*1...+*.;-;:;:;-;;",
"--;-;;>;..+**.+*1+1*+.....;;;;-;",
";;>;;-...+**1**+***+.+*+.;-;-;;-",
"-;;:;.+***.+*1*****11*+...;;;--;",
"-;-;;;..+*******++***1***+.---;;",
";-;=;.+**+***1****+*****+.+.;;:;",
"-;;;.+**+1**11**1**1***1*+...:;;",
"-;>.+*.+1*+*1***11+*1***1*.;>;;;",
";-;:..++**+***+*1*+*1+*+**+.;;-=",
"-;-;:.*+*++**+++**+**+**+**.=;;=",
";;--.*+++ +*+ ##** +*+** ++*.-;-",
">;;;.+.+  ++ # $*+  + +* +...;-:",
":>;>...++  +#$ $+# #   +++.-.-;;",
";:>;.-.++++ ### # ### ++++.-=;;;",
";-;;-;.++.+++#$#+#$#+++.++.;--;-",
";-=;;;.+..++#$$++$$#+++..+.;-;;-",
">;=-;;-.o.++$$$++$$#+++.o.;;;>;;",
">;;;:;;o@@.+$$#.$$$+.+.@@o--;;>;",
";;-;;>o,2@2$$$.2$$$.2.22@o;;-;-;",
"=-;;;:o@,@3$$$33$$$32233@oX;-;;;",
";;-;;;Xo@23$$$44$$$332343@<X;;>;",
"-;=;-;X%@34$$344$##4433443@%X:;;",
"-;=;=-;X@344344444444443443@X;;-",
";;-;;;-;@3343444444444444442X;;;",
";>;;-;;;@2343444444444444443@;-;",
";:;>;-;;@2333344444444343444@;;-",
";;--;;=-@2232344344443243344@;=-",
";-;;-;;;@22323443344332232@@;-=;",
";;;-;>;;;@@2@234333332@2@@-;-;;;",
">;>;-:>;;>;@&&&O@222@@@@-;;;;:;;"
};
