/* XPM */
static char *result[] = {
/* columns rows colors chars-per-pixel */
"32 32 22 1 ",
"  c #323234",
". c #760000",
"X c #4D3B39",
"o c #534721",
"O c #444444",
"+ c #705654",
"@ c #767678",
"# c #AD0000",
"$ c #FF2627",
"% c #8B5E4A",
"& c #8F7772",
"* c #87AA1C",
"= c #8FB31E",
"- c #95BB1F",
"; c #9FC42C",
": c #A4C92D",
"> c #9F8781",
", c #979799",
"< c #B7A099",
"1 c #B7B7BB",
"2 c #D9D9DD",
"3 c white",
/* pixels */
";:--=-;-:==-XXXX---XXXX-:-=-:=--",
"-;===--XXXXXX+&<XXX+&X=--:-:;--=",
"-=--*---XX+&&X+&<+<&+XXXXX-;-=--",
"==-=--XXX+&&<&&+&&&+X+&+X=----=-",
"--:--X+&&&X+&<&&&&&<<&+XXX=-=--=",
"=--;-:XX+&&&&&&&++&&&<&&&+X--==-",
"=-=--X+&&+&&&<&&&&+&&&&&+X+X==--",
"-=-*X+&&+<&&<<&&<&&<&&&<&+XXX-;-",
"=--X+&X+<&+&<&&&<<+&<&&&<&X-:;--",
"=-::XX++&&+&&&+&<&+&<+&+&&+X:---",
"-=-;:X&+&++&&+++&&+&&+&&+&&X--=*",
"=-=-X&+++.+&+.##&&.+&+&&.++&X--*",
"--==X+X+..++.#.$&+..+.+&.+XXX=-=",
":---XXX++..+#$.$+#.#...+++X-X-=;",
";:-:X-X++++.###.#.###.++++X=*=--",
"-;:--=X++X+++#$#+#$#+++X++X=*---",
"-=--=-X+XX+++#$$+$$#+++XX+X-==-=",
"-=*----XOX+++#$$+$$#+++XOX=-=--=",
":-*=--=O@@X+X$$$X$$$X+X@@O---:--",
":---;-O,1@1X1$$$1$$$1X1@1,O=--:-",
"--=--:O@@1211$$$2$$$1121@@O-=-=-",
"*=---; O@1212$$$3$$22121@O -=---",
"--=---o>@12123$$3$$32121@>o---:-",
"=-*-=o%@12323333333332321@%o:;--",
"=-*-*o%@12333333333333321@%o;--=",
"--=--o%@13323333333332331@%o----",
"-:--=-@1232133333333312321@-=-=-",
"-;-:-=@1232123333333212321@=---=",
"--==--@1221123333333211221@-*-*=",
"-=--=--@@11@223333322@11@@---=*-",
"---=-:---@@@@1111111@@@@--=-=---",
":-:-=;:--:--ooo-*-ooo=--=----;--"
};
