/* XPM */
static char *result[] = {
/* columns rows colors chars-per-pixel */
"32 32 44 1 ",
"  c #2E1E22",
". c #760000",
"X c #5C2E00",
"o c #4D3B39",
"O c #534721",
"+ c #444444",
"@ c #565657",
"# c #77584A",
"$ c #705654",
"% c #6D6D6E",
"& c #767678",
"* c #AD0000",
"= c #FF2627",
"- c #964F00",
"; c #8B5E4A",
": c #9D704C",
"> c #A77E5D",
", c #8F7772",
"< c #87AA1C",
"1 c #8FB31E",
"2 c #95BB1F",
"3 c #C79D00",
"4 c #E3B700",
"5 c #9FC42C",
"6 c #A4C92D",
"7 c #FFD600",
"8 c #FFFC00",
"9 c #D7906E",
"0 c #1A5586",
"q c #286E9F",
"w c #288DCB",
"e c #858587",
"r c #9F8781",
"t c #928A8C",
"y c #979799",
"u c #B89D92",
"i c #B7A099",
"p c #B7B7BB",
"a c #EEBE93",
"s c #FFE1AF",
"d c gray85",
"f c #D9D9DD",
"g c gray95",
"h c white",
/* pixels */
"562212526112oooo222oooo262126122",
"2511122oooooo$,$ooo$,o1226265221",
"2122<222o$,,io$,,$,,oooooo252122",
"1121226ooo$$,i,$i,,$$i,$o1222212",
"226221o$,,,,,,,,,i,,i,$ooo121221",
"1225262oo$,,i,,,,,,,,,,,,$o22112",
"121222o$,,,i,$,,,,i,,,i,$,$o1122",
"212<2o$,,$$,$,i,$ii,.,,i,oooo252",
"1222o$,o*.,$*,i,$i,$*$,i$,o26522",
"12662oo.=*$*=,,,*,,*=.,,o$$o6222",
"21256o$.*..*=$,$=,$==*,$Oo$o221<",
"1212o$$*=$$,$$$$s$sssa$aO1o2<22<",
"2211o$**=$,,$$$,ssOOOsaaO2112121",
"6222oo*==,,,sa,,ssd fssaO2221215",
"5626oo*==,,,s:a,ssg tssaO121<122",
"25622o*==,,$a:s,sshXXss9O221<222",
"21221o*==$,$O9a,sss--sa:O2221121",
"21<22.*=*$$$$99asssssa9O62121221",
"62<12.*=*o$o$:99aaa99:O652222622",
"62225..=*2o&o&&OOOOOOO2522112262",
"221226...1&ppfhhhhffp&212<221212",
"<12225262&pppfppfhhh43O212221222",
"22122212&&p&&y&+wfhq7O1222<22262",
"12<2122&&pf&ruuOwwwq7+1252226522",
"12<2<12&&fh&;>;O;;;;e+2226265221",
"221222&&pfh&;>>Owwq0@+1125252222",
"262212&&pfh&#>>O%%%@3O2<22121212",
"252621&&pfh&OOO78873O22212212221",
"221122&&pfh&2OrruuOO26222122<2<1",
"2122122&&ph&<O#;>;O265221<2221<2",
"22212622&&&12O#;>>O2511222121222",
"62621562262222OOOO22112212222522"
};
