/* XPM */
static char *result[] = {
/* columns rows colors chars-per-pixel */
"32 32 43 1 ",
"  c #2E1E22",
". c #760000",
"X c #5C2E00",
"o c #4D3B39",
"O c #534721",
"+ c #444444",
"@ c #565657",
"# c #77584A",
"$ c #705654",
"% c #6D6D6E",
"& c #767678",
"* c #AD0000",
"= c #FF2627",
"- c #964F00",
"; c #8B5E4A",
": c #9D704C",
"> c #A77E5D",
", c #8F7772",
"< c #87AA1C",
"1 c #8FB31E",
"2 c #95BB1F",
"3 c #C79D00",
"4 c #E3B700",
"5 c #9FC42C",
"6 c #A4C92D",
"7 c #FFD600",
"8 c #D7906E",
"9 c #1A5586",
"0 c #286E9F",
"q c #288DCB",
"w c #858587",
"e c #9F8781",
"r c #928A8C",
"t c #979799",
"y c #B89D92",
"u c #B7A099",
"i c #B7B7BB",
"p c #EEBE93",
"a c #FFE1AF",
"s c gray85",
"d c #D9D9DD",
"f c gray95",
"g c white",
/* pixels */
"562212526112622222212<2262126122",
"2511122122<2oooo262oooo226265221",
"2122<22oooooo$,$ooo$,o2125252122",
"11212262o$,,uo$,,$,,oooooo222212",
"2262211ooo$$,u,$u,,$$u,$o2121221",
"122526o$,,,,,,,,,u,,u,$ooo222112",
"121222<oo$,,u,,,,,,,,,,,,$o11122",
"212<21o$,,,u,$,,,,u,,,u,$,$o2252",
"12222o$,,$$,$,u,$uu,.,,u,oooo522",
"1266o$,o*.,$*,u,$u,$*$,u$,o26222",
"21256oo.=*$*=,,,*,,*=.,,o$$o221<",
"12125o$.*..*=$,$=,$==*,$Oo$o<22<",
"2211o$$*=$$,$$$$a$aaap$pO2o12121",
"6222o$*==$,,$$$,aaOOOappO2221215",
"5626oo===,,,ap,,aas daapO121<122",
"2562o===*,,,a:p,aaf raapO221<222",
"2122.===*,,$p:a,aagXXaa8O2221121",
"21<2===*$$,$O8p,aaa--ap:O2121221",
"62<.===*$$$$$88paaaaap8O52222622",
"622*..=o$o$o$:88ppp88:O522112262",
"221***.2o1o2o&&OOOOOOO212<221212",
"<122**2622<&iddgggddi&2212221222",
"2212221221&idididggg43O222<22262",
"12<21221&&iddti&+dg07O1252226522",
"12<2<12&&iidg@@yyOq07+2226265221",
"221222&&&iidg%e>>>O;w+1125252222",
"262212&&iiidgO#>>>O9@+2<22121212",
"252621&&i&idg%O#;;O@3O2212212221",
"221122<&&&idg73OOO73;;O22122<2<1",
"21221222&&iidg>eeOO;;;O21<2221<2",
"222126222&&&id&>O25OOO1222121222",
"626215622622&&OO<222112212222522"
};
