/* XPM */
static char *result[] = {
/* columns rows colors chars-per-pixel */
"32 32 23 1 ",
"  c #760000",
". c #4D3B39",
"X c #534721",
"o c #444444",
"O c #77584A",
"+ c #705654",
"@ c #767678",
"# c #AD0000",
"$ c #FF2627",
"% c #8B5E4A",
"& c #A77E5D",
"* c #8F7772",
"= c #87AA1C",
"- c #8FB31E",
"; c #95BB1F",
": c #9FC42C",
"> c #A4C92D",
", c #858587",
"< c #9F8781",
"1 c #B7A099",
"2 c #B7B7BB",
"3 c #D9D9DD",
"4 c white",
/* pixels */
":>;;-;:;>--;>;;;;;;-;=;;>;-;>-;;",
";:---;;-;;=;....;>;....;;>;>:;;-",
";-;;=;;......+*1...+*.;-;:;:;-;;",
"--;-;;>;..+**.+*1+1*+.....;;;;-;",
";;>;;-...+**1**+***+.+*+.;-;-;;-",
"-;;:;.+***.+*1*****11*+...;;;--;",
"-;-;;;..+*******++***1***+.---;;",
";-;=;.+**+***1****+*****+.+.;;:;",
"-;;;.+**+1**11**1**1***1*+...:;;",
"-;>.+*.+1*+*1***11+*1***1*.;>;;;",
";-;:..++**+***+*1*+*1+*+**+.;;-=",
"-;-;:.*+*++**+++**+**+**+**.=;;=",
";;--.*+++ +*+ ##** +*+** ++*.-;-",
">;;;.+.+  ++ # $*+  + +* +...;-:",
":>;>...++  +#$ $+# #   +++.-.-;;",
";:>;.-.++++ ### # ### ++++.-=;;;",
";-;;-;.++.+++#$#+#$#+++.++.;--;-",
";-=;;;.+..+++#$$++$$#++..+.;-;;-",
">;=-;;-.o.+++#$$++$$$++.o.;;;>;;",
">;;;:;;o@@.+.+$$$.#$$+.@@o--;;>;",
";;-;;>;o@32.2.$$$2.$$$2@2,o;-;-;",
"=-;;;:X@233223$$$33$$$3@,@o;-;;;",
";;-;;X<@343233$$$44$$$32@oX;;;>;",
"-;=;X%@3443344##$443$$43@%X;>:;;",
"-;=;X@344344444444443443@X;>:;;-",
";;-;X2444444444444443433@:;:;;;;",
";>;;@3444444444444443432@;-;-;-;",
";:;>@4443434444444433332@;;-;;;-",
";;--@4433423444434432322@-;;=;=-",
";-;;-@@23223344334432322@=;;;-=;",
";;;-;>;@@2@233333432@2@@;;-;-;;;",
">;>;-:>;;@@@@222@O&&&@;;-;;;;:;;"
};
