/* XPM */
static char *result[] = {
/* columns rows colors chars-per-pixel */
"32 32 45 1 ",
"  c #2E1E22",
". c #323234",
"X c #760000",
"o c #5C2E00",
"O c #4D3B39",
"+ c #534721",
"@ c #444444",
"# c #565657",
"$ c #77584A",
"% c #705654",
"& c #6D6D6E",
"* c #767678",
"= c #AD0000",
"- c #FF2627",
"; c #964F00",
": c #8B5E4A",
"> c #9D704C",
", c #A77E5D",
"< c #8F7772",
"1 c #87AA1C",
"2 c #8FB31E",
"3 c #95BB1F",
"4 c #C79D00",
"5 c #E3B700",
"6 c #9FC42C",
"7 c #A4C92D",
"8 c #FFD600",
"9 c #FFFC00",
"0 c #D7906E",
"q c #1A5586",
"w c #286E9F",
"e c #288DCB",
"r c #858587",
"t c #9F8781",
"y c #928A8C",
"u c #979799",
"i c #B89D92",
"p c #B7A099",
"a c #B7B7BB",
"s c #EEBE93",
"d c #FFE1AF",
"f c gray85",
"g c #D9D9DD",
"h c gray95",
"j c white",
/* pixels */
"6733236372OOOO333OOOO13373237233",
"36222332331O<%OOOp<%OOOOOO376332",
"3233133OOOOO%<<%p<%O<<%OO6363233",
"22323373O%<%O%p<<%<<p<<%OOO33323",
"3373322OOO%<<<<p<<<p<%Op<<%O2332",
"233637O%<<<pp<<<<<<<<<p<%OO33223",
"23233O%O%<<<<<<<p<<p<<<%<<%O2233",
"3231OOO%<p<<<p<pp<X%p<<<%<<%O363",
"233332O<p<<<p<%p<%=X<<Xp<%O<%O33",
"23773O%<<%<%<<X<<=-=%<X<p%%OO333",
"32367O<<%<<X<%=<%---=<X%<%<O3321",
"2323O<%%<<%s%dd%dddds%s%<%%<O331",
"3322OO+%<%s+++ddddd+++s0%0O%O232",
"7333O3+%<%sf gdddddg fs0%0+OO326",
"673733O+%>sh ydddddy hs>%+O2O233",
"367332O%%>sjoodddddoojs>%%O21333",
"323323O%O+0s;;ddddd;;s0+O%O32232",
"3213333O**+0sddddddds0+**O232332",
"7312332@*aa+>0sssss0>+aa*@333733",
"733363@uaaga+++++++++agaau@23373",
"332337@*gurgjjga*agjjgrug*@32323",
"123336.@##.qgjj545jjgq.##@.32333",
"332333+t&@.qwjee9eejwq.@&t+33373",
"23132+:,i..$qwee8eewq$..i,:+7633",
"23131+,,:.@q$::rrr::$q@.:,,+6332",
"33233+::+.@#wee&9&eew#@.+::+3333",
"373323++j+4##&&9#9&&##4+j++32323",
"363732*jj*+4889@@@9884+*jj*23332",
"332233*jj**+tit+++tit+**jj*31312",
"3233233*j*3+:,$+3+$,:+3*j*333213",
"33323733*33+,,:+2+:,,+23*3232333",
"737326733733+++313+++23323333633"
};
