/* XPM */
static char *result[] = {
/* columns rows colors chars-per-pixel */
"32 32 45 1 ",
"  c #2E1E22",
". c #323234",
"X c #760000",
"o c #5C2E00",
"O c #4D3B39",
"+ c #534721",
"@ c #444444",
"# c #565657",
"$ c #77584A",
"% c #705654",
"& c #6D6D6E",
"* c #767678",
"= c #AD0000",
"- c #FF2627",
"; c #964F00",
": c #8B5E4A",
"> c #9D704C",
", c #A77E5D",
"< c #8F7772",
"1 c #87AA1C",
"2 c #8FB31E",
"3 c #95BB1F",
"4 c #C79D00",
"5 c #E3B700",
"6 c #9FC42C",
"7 c #A4C92D",
"8 c #FFD600",
"9 c #FFFC00",
"0 c #D7906E",
"q c #1A5586",
"w c #286E9F",
"e c #288DCB",
"r c #858587",
"t c #9F8781",
"y c #928A8C",
"u c #979799",
"i c #B89D92",
"p c #B7A099",
"a c #B7B7BB",
"s c #EEBE93",
"d c #FFE1AF",
"f c gray85",
"g c #D9D9DD",
"h c gray95",
"j c white",
/* pixels */
"67332363722373333332313373237233",
"3622233233OOOO733OOOO12337376332",
"32331333323O<%OOOp<%OOOOOO363233",
"2232337OOOOO%<<%p<%O<<%OO2333323",
"33733223O%<%O%p<<%<<p<<%OOO32332",
"2336373OOO%<<<<p<<<p<%Op<<%O3223",
"232333O%<<<pp<<<<<<<<<p<%OO22233",
"32313O%O%<<<<<<<p<<p<<<%<<%O3363",
"2333OOO%<p<<<p<pp<X%p<<<%<<%O633",
"237733O<p<<<p<%p<%=X<<Xp<%O<%O33",
"32367O%<<%<%<<X<<=-=%<X<p%%OO321",
"23236O<<%<<X<%=<%---=<X%<%<O1331",
"3322O<%%<<%s%dd%dddds%s%<%%<O232",
"7333OO+%<%s+++ddddd+++s0%0O%O326",
"6737O3+%<%sf gdddddg fs0%0+OO233",
"367332O+%>sh ydddddy hs>%+O2O333",
"323323O%%>sjoodddddoojs>%%O32232",
"321333O%O+0s;;ddddd;;s0+O%O32332",
"7312332@**+0sddddddds0+**@333733",
"733363@**aa+>0sssss0>+aa**@23373",
"332337@aggga+++++++++agagu@32323",
"123336@uagrgjjga*agjjgruu*@32333",
"332333.&&&.qgjj545jjgq.##@:+3373",
"231323+ti&.qwjee9eejwq..+::+7633",
"231312+,,i+$qwee8eewq$.**++a*332",
"332333+,,,+q$::rrr::$q@.**aaa*33",
"373323+$,:+#wee&9&eew#@.**aga*23",
"363732*+++4###&9#9&&&#4+***ga*32",
"332233*jjj+4488@@@9988+****a*312",
"323323*jjj*+:::+*+tit$*3213*3213",
"3332373*j**2+++22$,,:+2333232333",
"73732673*73333231$,,,+3323333633"
};
