/* XPM */
static char *result[] = {
/* columns rows colors chars-per-pixel */
"32 32 43 1 ",
"  c #2E1E22",
". c #760000",
"X c #5C2E00",
"o c #4D3B39",
"O c #534721",
"+ c #444444",
"@ c #565657",
"# c #77584A",
"$ c #705654",
"% c #6D6D6E",
"& c #767678",
"* c #AD0000",
"= c #FF2627",
"- c #964F00",
"; c #8B5E4A",
": c #9D704C",
"> c #A77E5D",
", c #8F7772",
"< c #87AA1C",
"1 c #8FB31E",
"2 c #95BB1F",
"3 c #C79D00",
"4 c #E3B700",
"5 c #9FC42C",
"6 c #A4C92D",
"7 c #FFD600",
"8 c #D7906E",
"9 c #1A5586",
"0 c #286E9F",
"q c #288DCB",
"w c #858587",
"e c #9F8781",
"r c #928A8C",
"t c #979799",
"y c #B89D92",
"u c #B7A099",
"i c #B7B7BB",
"p c #EEBE93",
"a c #FFE1AF",
"s c gray85",
"d c #D9D9DD",
"f c gray95",
"g c white",
/* pixels */
"562212526112622222212<2262126122",
"2511122122oooo622oooo<1226265221",
"2122<222212o,$ooo$,$oooooo252122",
"1121226oooooo,,$,,$ou,,$o1222212",
"22622112o$,u$$,,u$,u,$$ooo121221",
"1225262ooo$,u,,u,,,,,,,,,$o22112",
"121222o$,,,,,,,,,,,,u,,$oo111122",
"212<2o$,$,u,,,u,,,,$,u,,,$o12252",
"1222oooo,u,,.,uu$,u,$,$$,,$o6522",
"126622o,$u,$*$,u$,u,*$,.*o,$o222",
"21256o$$o,,.=*,,*,,,=*$*=.oo221<",
"12125o$oO$,*==$,=$,$=*..*.$o<22<",
"221111o2Op$paaa$a$$$$,$$=*$$o121",
"62221222OppaOOOaa,$$$,,$==*$o215",
"56262212Opaad saa,,pa,,,===oo122",
"25622122Opaar faa,p:a,,,*===o222",
"21221225O8aaXXgaa,a:p$,,*===.121",
"21<22222O:pa--aaa,p8O$,$$*===221",
"62<122122O8paaaaap88$$$$$*===.22",
"6222522212O:88ppp88:$o$o$o=..*62",
"22122622211OOOOOOO&&o5o1o<.***12",
"<122252622<&iddgggddi&22122**222",
"2212221221O34gggdididi&222<22262",
"12<21221222O70gd+&itddi&52226522",
"12<2<122221+70qOyy@@gdii&6265221",
"22122212622+w;O>>>e%gdii&&252222",
"26221222562+@9O>>>#Ogdiii&121212",
"25262122251O3@O;;#O%gdi&i&212221",
"221122<122O;;37OOO37gdi&&122<2<1",
"2122122212O;;;OOee>gdii&1<2221<2",
"22212622222OOO21O>&di&&222121222",
"6262156226222212<OO&&12212222522"
};
