/* XPM */
static char *result[] = {
/* columns rows colors chars-per-pixel */
"32 32 44 1 ",
"  c #2E1E22",
". c #760000",
"X c #5C2E00",
"o c #4D3B39",
"O c #534721",
"+ c #444444",
"@ c #565657",
"# c #77584A",
"$ c #705654",
"% c #6D6D6E",
"& c #767678",
"* c #AD0000",
"= c #FF2627",
"- c #964F00",
"; c #8B5E4A",
": c #9D704C",
"> c #A77E5D",
", c #8F7772",
"< c #87AA1C",
"1 c #8FB31E",
"2 c #95BB1F",
"3 c #C79D00",
"4 c #E3B700",
"5 c #9FC42C",
"6 c #A4C92D",
"7 c #FFD600",
"8 c #FFFC00",
"9 c #D7906E",
"0 c #1A5586",
"q c #286E9F",
"w c #288DCB",
"e c #858587",
"r c #9F8781",
"t c #928A8C",
"y c #979799",
"u c #B89D92",
"i c #B7A099",
"p c #B7B7BB",
"a c #EEBE93",
"s c #FFE1AF",
"d c gray85",
"f c #D9D9DD",
"g c gray95",
"h c white",
/* pixels */
"5622125261oooo222oooo<2262126122",
"2511122122<o,$ooo$,$oooooo265221",
"2122<22oooooo,,$,,$oi,,$o5252122",
"11212262o$,i$$,,i$,i,$$ooo222212",
"2262211ooo$,i,,i,,,,,,,,,$o21221",
"122526o$,,,,,,,,,,,,i,,$oo222112",
"12122o$,$,i,,,i,,,,$,i,,,$o11122",
"212<oooo,i,,.,ii$,i,$,$$,,$o2252",
"122221o,$i,$*$,i$,i,*$,.*o,$o522",
"12662o$$o,,.=*,,*,,,=*$*=.oo6222",
"21256o$oO$,*==$,=$,$=*..*.$o221<",
"121251o1Oa$asss$s$$$$,$$=*$$o22<",
"22111122OaasOOOss,$$$,,$=**$o121",
"62221222Oassf dss,,as,,,==*oo215",
"56262212Oasst gss,a:s,,,==*oo122",
"25622122O9ssXXhss,s:a$,,==*o<222",
"21221225O:as--sss,a9O$,$==*o1121",
"21<222226O9asssssa99$$$$*=*.1221",
"62<1221222O:99aaa99:$o$o*=*.2622",
"62225222121OOOOOOO&&o&o5*=..2262",
"22122622211&pffhhhhfpp&1...21212",
"<122252622O34hhhfppfppp&12221222",
"2212221221<O7qhfw+&y&&p&22<22262",
"12<21221222+7qwwwOuur&fp&2226522",
"12<2<122221+e;;;;O;>;&hf&6265221",
"22122212622+@0qwwO>>;&hfp&252222",
"26221222562O3@%%%O>>#&hfp&121212",
"252621222516O37887OOO&hfp&212221",
"221122<122222OOuurrO2&hfp&22<2<1",
"212212221221<1O;>;#O6&hp&<2221<2",
"22212622222122O>>;#O51&&22121222",
"626215622622221OOOO2112212222522"
};
