/* XPM */
static char *result[] = {
/* columns rows colors chars-per-pixel */
"32 32 42 1 ",
"  c #2E1E22",
". c #760000",
"X c #5C2E00",
"o c #4D3B39",
"O c #534721",
"+ c #444444",
"@ c #565657",
"# c #77584A",
"$ c #705654",
"% c #6D6D6E",
"& c #767678",
"* c #AD0000",
"= c #FF2627",
"- c #964F00",
"; c #8B5E4A",
": c #9D704C",
"> c #A77E5D",
", c #8F7772",
"< c #87AA1C",
"1 c #8FB31E",
"2 c #95BB1F",
"3 c #C79D00",
"4 c #E3B700",
"5 c #9FC42C",
"6 c #A4C92D",
"7 c #FFD600",
"8 c #FFFC00",
"9 c #D7906E",
"0 c #286E9F",
"q c #288DCB",
"w c #858587",
"e c #928A8C",
"r c #979799",
"t c #B89D92",
"y c #B7A099",
"u c #B7B7BB",
"i c #EEBE93",
"p c #FFE1AF",
"a c gray85",
"s c #D9D9DD",
"d c gray95",
"f c white",
/* pixels */
"562212526112622222212<2262126122",
"2511122122oooo622oooo<1226265221",
"2122<222212o,$ooo$,$oooooo252122",
"1121226oooooo,,$,,$oy,,$o1222212",
"22622112o$,y$$,,y$,y,$$ooo121221",
"1225262ooo$,y,,y,,,,,,,,,$o22112",
"121222o$,,,,,,,,,,,,y,,$oo111122",
"212<2o$,$,y,,,y,,,,$,y,,,$o12252",
"1222oooo,y,,.,yy$,y,$,$$,,$o6522",
"126622o,$y,$*$,y$,y,*$,.*o,$o222",
"21256o$$o,,.=*,,*,,,=*$*=.oo221<",
"12125o$oO$,*==$,=$,$=*..*.$o<22<",
"221111o2Oi$ippp$p$$$$,$$=*$$o121",
"62221222OiipOOOpp,$$$,,$==*$o215",
"56262212Oipps app,,ip,,,===oo122",
"25622122Oippe dpp,i:p,,,*==*o222",
"21221225O9ppXXfpp,p:i$,,*=**.121",
"21<22222O:ip--ppp,i9O$,$$****221",
"62<122122O9ipppppi99$$$$$****.22",
"6222522212O:99iii99:$o$o$o*...62",
"22122622211OOOOOOO&&o&o1o<....12",
"<122252622<&ussfffsuuu&2122..222",
"2212221221O34fffsssurss&&2<22262",
"12<21221222O70fsq+ur&&sfu&226522",
"12<2<122221+70qqq0O@t&usfu&65221",
"22122212622+w;;;;;;O>>&ufsu&2222",
"26221222562+@0qqqq0O;>>&ffs&1212",
"25262122251O7%%%%%%%O;;&sffu&221",
"221122<1222Ot88877733OO&uffu&2<1",
"2122122212O>>;;#OOO;;O&&&fu&21<2",
"2221262222O>>>#O12OOO11&&s&21222",
"62621562262OOOO2<22211221&222522"
};
