/* XPM */
static char *result[] = {
/* columns rows colors chars-per-pixel */
"32 32 42 1 ",
"  c #2E1E22",
". c #760000",
"X c #5C2E00",
"o c #4D3B39",
"O c #534721",
"+ c #444444",
"@ c #565657",
"# c #77584A",
"$ c #705654",
"% c #6D6D6E",
"& c #767678",
"* c #AD0000",
"= c #FF2627",
"- c #964F00",
"; c #8B5E4A",
": c #9D704C",
"> c #A77E5D",
", c #8F7772",
"< c #87AA1C",
"1 c #8FB31E",
"2 c #95BB1F",
"3 c #C79D00",
"4 c #E3B700",
"5 c #9FC42C",
"6 c #A4C92D",
"7 c #FFD600",
"8 c #FFFC00",
"9 c #D7906E",
"0 c #286E9F",
"q c #288DCB",
"w c #858587",
"e c #928A8C",
"r c #979799",
"t c #B89D92",
"y c #B7A099",
"u c #B7B7BB",
"i c #EEBE93",
"p c #FFE1AF",
"a c gray85",
"s c #D9D9DD",
"d c gray95",
"f c white",
/* pixels */
"562212526112622222212<2262126122",
"2511122122<2oooo262oooo226265221",
"2122<22oooooo$,$ooo$,o2125252122",
"11212262o$,,yo$,,$,,oooooo222212",
"2262211ooo$$,y,$y,,$$y,$o2121221",
"122526o$,,,,,,,,,y,,y,$ooo222112",
"121222<oo$,,y,,,,,,,,,,,,$o11122",
"212<21o$,,,y,$,,,,y,,,y,$,$o2252",
"12222o$,,$$,$,y,$yy,.,,y,oooo522",
"1266o$,o*.,$*,y,$y,$*$,y$,o26222",
"21256oo.=*$*=,,,*,,*=.,,o$$o221<",
"12125o$.*..*=$,$=,$==*,$Oo$o<22<",
"2211o$$*=$$,$$$$p$pppi$iO2o12121",
"6222o$*==$,,$$$,ppOOOpiiO2221215",
"5626oo===,,,pi,,ppa sppiO121<122",
"2562o*==*,,,p:i,ppd eppiO221<222",
"2122.**=*,,$i:p,ppfXXpp9O2221121",
"21<2****$$,$O9i,ppp--pi:O2121221",
"62<.****$$$$$99ipppppi9O52222622",
"622...*o$o$o$:99iii99:O522112262",
"221....2o1o&o&&OOOOOOO212<221212",
"<122..2622&uuusfffssu&2212221222",
"22122212&&ssrusssfff43O222<22262",
"12<212&&ufs&&ru+qsf07O1252226522",
"12<2<&&ufsu&t@O0qqq07+2226265221",
"2212&&usfu&>>O;;;;;;w+1125252222",
"2622&&sff&>>;O0qqqq0@+2<22121212",
"252&&uffs&;;O%%%%%%%7O2212212221",
"221&&uffu&OO33777888tO222122<2<1",
"2122&&uf&&2O;;OOO#;;>>O21<2221<2",
"22212&&s&221OOO11O#>>>O222121222",
"626215&&26222212<2OOOO2212222522"
};
